<?xml version="1.0" encoding="UTF-8"?>
<svg id="Layer_5" data-name="Layer 5" xmlns="http://www.w3.org/2000/svg" viewBox="0 0 154.41 75.47">
  <defs>
    <style>
      .cls-1 {
        fill: #2e2a6e;
      }
    </style>
  </defs>
  <g>
    <path class="cls-1" d="M40.65,65.74h.52l-.68,1.99c-.36,1.02-.87,1.74-1.51,2.17-.65.43-1.34.64-2.08.64-.94,0-1.62-.28-2.02-.84-.25-.33-.38-.78-.38-1.36,0-.47.08-1.01.25-1.61-.62,1.34-1.3,2.32-2.06,2.92-.75.6-1.58.9-2.49.9-1,0-1.76-.3-2.27-.89s-.78-1.41-.78-2.47c0-1.62.43-3.33,1.29-5.13.86-1.81,1.96-3.32,3.28-4.54,1.33-1.22,2.62-1.83,3.9-1.83.49,0,.89.15,1.19.44.3.29.48.73.53,1.31l.38-1.33c1.45-.02,2.77-.15,3.95-.41l-3.57,12.15c-.09.31-.14.56-.14.76,0,.4.17.6.52.6.64,0,1.2-.72,1.69-2.15l.49-1.31ZM37.02,58.49c.02-.09.03-.23.03-.41,0-.45-.08-.8-.23-1.04-.15-.24-.39-.35-.69-.35-.62,0-1.32.55-2.11,1.66-.79,1.11-1.46,2.5-2.02,4.17-.55,1.67-.83,3.29-.83,4.85,0,.6.06,1.03.18,1.29.12.26.31.39.59.39.4,0,.84-.28,1.32-.83.48-.55.96-1.35,1.44-2.4.48-1.04.9-2.28,1.27-3.72l-.14.65,1.2-4.28Z"/>
    <path class="cls-1" d="M46.83,67.84c-.05.18-.08.36-.08.54,0,.27.07.48.22.61.15.14.34.21.6.21.4,0,.79-.2,1.16-.59.37-.39.7-.98.99-1.76l.41-1.12h.52l-.54,1.58c-.71,2.14-2.07,3.21-4.09,3.21-.93,0-1.62-.24-2.08-.72-.46-.48-.69-1.14-.69-1.97,0-.53.08-1.07.25-1.63l2.75-9.59h-2.45l.14-.54h2.48l1.17-4.06c1.54-.02,2.86-.14,3.95-.38l-1.28,4.44h3.08l-.08.54h-3.16l-3.24,11.22Z"/>
    <path class="cls-1" d="M66.28,65.74l-.68,1.99c-.65,1.87-1.87,2.81-3.65,2.81-1.65,0-2.48-.74-2.48-2.21,0-.65.14-1.36.41-2.12l2.42-7.36c.16-.53.25-.93.25-1.2,0-.4-.17-.6-.52-.6-.51,0-1.11.47-1.81,1.42-.7.94-1.41,2.22-2.14,3.81-.73,1.6-1.39,3.34-1.99,5.23l-.65,2.29s-.03.05-.03.08v-.03l-.08.3h-3.84l5.39-18.17c.09-.33.14-.58.14-.76,0-.36-.14-.63-.42-.79-.28-.16-.76-.25-1.43-.25l.16-.57c1.27-.02,2.41-.12,3.42-.3,1.01-.18,1.98-.45,2.93-.82l-3.71,12.67c.93-2.05,1.84-3.48,2.74-4.28.9-.8,1.92-1.2,3.06-1.2.85,0,1.48.2,1.88.59.4.39.6.92.6,1.59,0,.58-.13,1.23-.38,1.93l-2.67,8.04c-.11.33-.16.59-.16.79,0,.38.18.57.54.57.6,0,1.16-.72,1.69-2.15l.49-1.31h.52Z"/>
  </g>
  <g>
    <path class="cls-1" d="M90.32,57.56c0-.36-.16-.54-.49-.54s-.63.17-.9.5-.55.88-.84,1.65l-.54,1.39h-.52l.76-2.07c.67-1.87,1.93-2.81,3.79-2.81.84,0,1.44.21,1.83.61.38.41.57.94.57,1.59,0,.53-.1,1.06-.3,1.61l-2.86,8.34c-.11.33-.16.59-.16.79,0,.38.18.57.54.57.27,0,.55-.15.83-.46.28-.31.58-.87.88-1.69l.49-1.31h.52l-.71,1.99c-.64,1.87-1.86,2.81-3.68,2.81-1.65,0-2.48-.75-2.48-2.26,0-.6.14-1.29.41-2.07l2.67-7.82c.13-.42.19-.69.19-.82ZM91.98,49.75c.53-.44,1.18-.65,1.96-.65.64,0,1.13.15,1.49.45.35.3.53.71.53,1.24,0,.73-.27,1.33-.82,1.8-.54.47-1.22.71-2.02.71-.65,0-1.15-.16-1.5-.48-.34-.32-.5-.75-.46-1.29.02-.74.29-1.33.82-1.77Z"/>
    <path class="cls-1" d="M110.35,65.74l-.68,1.99c-.65,1.87-1.87,2.81-3.65,2.81-1.02,0-1.74-.3-2.18-.9-.24-.34-.35-.77-.35-1.28,0-.58.14-1.3.44-2.15l2.45-7.36c.16-.49.25-.88.25-1.17,0-.42-.17-.63-.52-.63-.54,0-1.2.55-1.98,1.66-.77,1.11-1.55,2.57-2.33,4.37-.78,1.81-1.46,3.71-2.04,5.71l-.35,1.36h-3.84l3.3-11.77c.11-.33.16-.62.16-.87,0-.33-.15-.49-.46-.49-.34,0-.65.16-.91.48-.26.32-.54.88-.83,1.67l-.52,1.39h-.52l.74-2.07c.34-1,.81-1.72,1.39-2.15.58-.44,1.29-.65,2.12-.65,1.56,0,2.34.75,2.34,2.23,0,.51-.07,1.04-.22,1.58l-.84,3.3c.74-1.85,1.46-3.29,2.14-4.32.68-1.03,1.37-1.75,2.07-2.17.7-.42,1.48-.63,2.33-.63,1.63,0,2.45.73,2.45,2.18,0,.54-.12,1.19-.35,1.93l-2.67,8.04c-.11.33-.16.59-.16.79,0,.38.17.57.52.57.29,0,.58-.15.86-.46.28-.31.57-.87.86-1.69l.49-1.31h.52Z"/>
    <path class="cls-1" d="M125.6,65.74h.52l-.65,1.99c-.33,1.04-.81,1.76-1.46,2.18s-1.36.63-2.14.63c-1.13,0-1.84-.42-2.15-1.25-.15-.33-.22-.71-.22-1.14,0-.53.11-1.17.33-1.93l.03-.11c-.69,1.54-1.42,2.67-2.19,3.38-.77.71-1.69,1.06-2.77,1.06-.96,0-1.74-.32-2.34-.95s-.9-1.59-.9-2.86c0-1.47.38-3.07,1.14-4.81s1.83-3.21,3.21-4.41,2.95-1.81,4.71-1.81c.85,0,1.41.31,1.66.93l1.23-4.63c.09-.33.14-.58.14-.76,0-.36-.14-.63-.42-.79-.28-.16-.76-.25-1.43-.25l.16-.57c1.25-.02,2.39-.12,3.42-.3,1.03-.18,2.01-.45,2.96-.82l-5.34,19.34c-.09.25-.14.5-.14.74,0,.42.17.63.52.63.27,0,.54-.16.82-.48.27-.32.55-.88.84-1.67l.46-1.31ZM122.2,57.27c-.2-.64-.56-.95-1.09-.95-.78,0-1.59.56-2.44,1.68s-1.55,2.53-2.12,4.24-.86,3.4-.86,5.07c0,.64.07,1.11.21,1.42.14.31.36.46.67.46.36,0,.79-.27,1.28-.8s1-1.31,1.54-2.33c.54-1.02,1.02-2.22,1.46-3.62l1.36-5.15Z"/>
    <path class="cls-1" d="M137.54,61.79c-1.69,1.13-3.65,2-5.88,2.62-.11.62-.16,1.24-.16,1.85,0,.96.18,1.64.53,2.04.35.4.88.6,1.57.6.56,0,1.2-.18,1.91-.53.71-.35,1.4-.92,2.07-1.7l.44.22c-.65,1.02-1.53,1.88-2.63,2.59-1.1.71-2.33,1.06-3.69,1.06-1.25,0-2.28-.34-3.08-1.01-.8-.67-1.2-1.62-1.2-2.83,0-1.62.44-3.29,1.31-5.01.87-1.73,2.06-3.16,3.57-4.29,1.51-1.13,3.16-1.7,4.96-1.7.83,0,1.52.19,2.04.56.53.37.79.9.79,1.59,0,1.51-.84,2.83-2.53,3.95ZM134.84,57.32c-.67.75-1.29,1.71-1.85,2.9-.56,1.19-.98,2.41-1.25,3.67,1.29-.56,2.29-1.17,3-1.83.73-.65,1.3-1.4,1.72-2.25.42-.84.63-1.75.63-2.71,0-.34-.04-.58-.11-.71-.07-.13-.18-.19-.33-.19-.53,0-1.13.37-1.8,1.12Z"/>
    <path class="cls-1" d="M153.08,56.3c.39.41.59.94.59,1.59,0,.78-.25,1.45-.75,2-.5.55-1.11.83-1.84.83-.53,0-.94-.14-1.23-.42-.29-.28-.44-.69-.44-1.21,0-.64.22-1.21.65-1.73.44-.52.97-.85,1.61-.99-.04,0-.09-.01-.16-.04-.07-.03-.14-.04-.19-.04-.93,0-1.87.67-2.83,2.02-.96,1.34-1.94,3.74-2.94,7.19l-1.2,4.66h-3.84l3.32-11.77c.09-.29.14-.57.14-.84,0-.34-.15-.52-.44-.52-.34,0-.65.16-.93.49-.27.33-.55.88-.84,1.66l-.52,1.39h-.52l.74-2.07c.67-1.87,1.92-2.81,3.76-2.81,1.4,0,2.1.74,2.1,2.21,0,.53-.07,1.06-.22,1.61l-.22.87c.67-1.73,1.36-2.94,2.06-3.64.7-.7,1.54-1.05,2.52-1.05.69,0,1.23.21,1.62.61Z"/>
  </g>
  <g>
    <path class="cls-1" d="M64.52,4.42c3.59,2.88,5.38,6.8,5.38,11.78,0,5.54-1.69,10.52-5.06,14.92-3.38,4.41-8.12,7.85-14.23,10.34-6.11,2.49-13.08,3.73-20.89,3.73h-3.2l-5.01,18.97c-.14.5-.36,1.33-.64,2.51-.28,1.17-.43,2.11-.43,2.82,0,1.35.53,2.31,1.6,2.88,1.07.57,2.98.89,5.76.96l-.43,2.13c-3.27-.21-7.67-.32-13.22-.32-6.25,0-10.87.11-13.86.32l.43-2.13c2.56-.14,4.48-.43,5.76-.85,1.28-.43,2.29-1.24,3.04-2.45.75-1.21,1.47-3.16,2.18-5.86L25.77,11.3c.64-2.56.96-4.26.96-5.12,0-1.42-.53-2.43-1.6-3.04-1.07-.6-2.95-.94-5.65-1.01l.53-2.13c2.84.21,7.21.32,13.11.32,3.41,0,5.97-.03,7.68-.11l7.89-.11c6.96,0,12.24,1.44,15.83,4.32ZM52.42,35.28c4.48-5.19,6.72-12.11,6.72-20.79,0-4.19-1.07-7.3-3.2-9.33s-5.58-3.04-10.34-3.04c-2.13,0-3.8.27-5.01.8-1.21.53-2.18,1.44-2.93,2.72-.75,1.28-1.44,3.16-2.08,5.65l-8.42,31.76h3.62c9.95,0,17.16-2.59,21.64-7.78Z"/>
    <path class="cls-1" d="M131.3,0c-1.78,5.05-3.23,9.59-4.37,13.64-.71,2.63-1.39,5.54-2.03,8.74h-2.45c.78-4.55,1.17-8.1,1.17-10.66,0-3.41-.89-5.81-2.66-7.19-1.78-1.39-4.98-2.08-9.59-2.08h-5.65c-2.56,0-4.46.2-5.7.59-1.24.39-2.26,1.19-3.04,2.4-.78,1.21-1.53,3.16-2.24,5.86l-7.04,26.22h7.78c3.62,0,6.32-1.08,8.1-3.25,1.77-2.17,3.07-4.35,3.89-6.56.82-2.2,1.37-3.62,1.65-4.26h2.45c-1.49,4.69-2.74,8.92-3.73,12.68l-.64,2.45c-1.14,4.69-2.28,9.73-3.41,15.14h-2.45l.32-2.35c.36-1.92.53-3.59.53-5.01,0-2.13-.53-3.78-1.6-4.95-1.07-1.17-2.95-1.76-5.65-1.76h-7.78l-6.61,24.52c-.57,2.13-.85,3.7-.85,4.69,0,1.7.66,2.84,1.97,3.41,1.31.57,3.71.92,7.19,1.07l-.53,2.13c-3.7-.21-8.92-.32-15.67-.32-6.04,0-10.55.11-13.54.32l.53-2.13c2.56-.14,4.46-.43,5.7-.85,1.24-.43,2.25-1.24,3.04-2.45.78-1.21,1.53-3.16,2.24-5.86l14.18-52.87c.64-2.27.96-4.01.96-5.22,0-1.49-.52-2.49-1.55-2.98-1.03-.5-2.9-.82-5.6-.96l.53-2.13c6.96.21,17.27.32,30.91.32,9.95,0,17.02-.11,21.21-.32Z"/>
  </g>
</svg>