<?xml version="1.0" encoding="UTF-8"?>
<svg id="Layer_4" data-name="Layer 4" xmlns="http://www.w3.org/2000/svg" viewBox="0 0 156.46 58.33">
  <defs>
    <style>
      .cls-1 {
        fill: #111;
      }

      .cls-2 {
        font-family: DMSans-BoldItalic, 'DM Sans';
        font-size: 6.03px;
        font-style: italic;
        font-weight: 700;
      }

      .cls-2, .cls-3 {
        fill: #2e2a6e;
      }
    </style>
  </defs>
  <g>
    <path class="cls-1" d="M23.38,4.78c1.25,1,1.88,2.38,1.88,4.11,0,1.94-.59,3.67-1.77,5.21-1.18,1.54-2.83,2.74-4.97,3.61-2.13.87-4.56,1.3-7.29,1.3h-1.12l-1.75,6.62c-.05.17-.12.46-.22.87-.1.41-.15.74-.15.99,0,.47.19.81.56,1,.37.2,1.04.31,2.01.33l-.15.74c-1.14-.07-2.68-.11-4.61-.11-2.18,0-3.8.04-4.84.11l.15-.74c.89-.05,1.56-.15,2.01-.3.45-.15.8-.43,1.06-.86.26-.42.51-1.1.76-2.05L9.86,7.18c.22-.89.33-1.49.33-1.79,0-.5-.19-.85-.56-1.06-.37-.21-1.03-.33-1.97-.35l.19-.74c.99.07,2.52.11,4.58.11,1.19,0,2.08-.01,2.68-.04l2.75-.04c2.43,0,4.27.5,5.53,1.51ZM19.16,15.55c1.56-1.81,2.34-4.23,2.34-7.26,0-1.46-.37-2.55-1.12-3.26s-1.95-1.06-3.61-1.06c-.74,0-1.33.09-1.75.28-.42.19-.76.5-1.02.95-.26.45-.5,1.1-.73,1.97l-2.94,11.09h1.27c3.47,0,5.99-.91,7.55-2.72Z"/>
    <path class="cls-1" d="M40.67,23.52h.71l-.93,2.72c-.5,1.36-1.13,2.35-1.9,2.96-.77.61-1.56.91-2.38.91-.47,0-.88-.09-1.23-.26-.35-.17-.62-.41-.82-.71-.22-.37-.33-.81-.33-1.3,0-.52.09-1.1.26-1.75.17-.64.28-1.05.33-1.23l.67-2.68c-1.19,2.78-2.4,4.79-3.63,6.05-1.23,1.25-2.51,1.88-3.85,1.88-1.14,0-2.01-.41-2.6-1.23s-.89-1.91-.89-3.27c0-2.01.53-4.25,1.6-6.74,1.07-2.48,2.46-4.59,4.17-6.33,1.71-1.74,3.45-2.6,5.21-2.6.67,0,1.21.25,1.64.74.42.5.67,1.19.74,2.08l.6-2.31c1.36-.05,2.51-.22,3.42-.52l-4.65,16.45c-.02.1-.07.29-.15.58-.07.29-.11.55-.11.8,0,.62.27.93.82.93,1.09,0,2.05-1.27,2.87-3.8l.45-1.38ZM31.14,27.31c.97-1.07,1.92-2.49,2.85-4.26.93-1.77,1.69-3.67,2.29-5.67l.67-2.64c.02-.2.04-.47.04-.82,0-1.02-.18-1.82-.54-2.4-.36-.58-.86-.87-1.51-.87-1.07,0-2.2.82-3.39,2.47-1.19,1.65-2.19,3.68-3,6.1-.81,2.42-1.21,4.69-1.21,6.83,0,1.02.11,1.75.33,2.2.22.45.55.67.97.67.69,0,1.53-.53,2.49-1.6Z"/>
    <path class="cls-1" d="M47.7,26.42c-.07.3-.11.57-.11.82,0,.5.15.87.45,1.12.3.25.68.37,1.15.37.62,0,1.2-.27,1.73-.8s1.06-1.51,1.58-2.92l.52-1.45h.71l-.78,2.34c-.52,1.54-1.2,2.62-2.03,3.26-.83.63-1.85.95-3.07.95-1.12,0-1.95-.27-2.49-.82-.55-.55-.82-1.3-.82-2.27,0-.65.11-1.35.33-2.12l3.94-13.69h-3.35l.19-.74h3.35l1.64-5.66c1.34-.05,2.46-.22,3.35-.52l-1.75,6.18h4.91l-.11.74h-5.02l-4.32,15.22Z"/>
    <path class="cls-1" d="M73.79,23.55l-.93,2.72c-.89,2.56-2.39,3.83-4.5,3.83-1.74,0-2.6-.77-2.6-2.31,0-.74.2-1.71.6-2.9l3.54-10.64c.25-.69.37-1.31.37-1.86,0-.84-.4-1.27-1.19-1.27-.92,0-1.9.58-2.96,1.73-1.05,1.15-2.12,2.77-3.18,4.86-1.07,2.08-2.06,4.5-2.98,7.26l-1.34,4.61h-3.24l7.37-24.82c.12-.42.19-.76.19-1,0-.5-.2-.86-.6-1.1-.4-.24-1.05-.35-1.97-.35l.22-.78c2.58-.02,4.81-.53,6.7-1.53l-5.4,18.46c1.34-3.03,2.68-5.2,4.02-6.53,1.34-1.33,2.8-1.99,4.39-1.99,2.01,0,3.01.94,3.01,2.83,0,.79-.19,1.72-.56,2.79l-3.61,10.87c-.2.6-.3,1.07-.3,1.41,0,.6.3.89.89.89.5,0,.97-.28,1.43-.84.46-.56.94-1.54,1.43-2.96l.48-1.38h.71Z"/>
  </g>
  <g>
    <path class="cls-1" d="M72.36,31.47c-.62,1.76-1.13,3.35-1.53,4.76-.25.92-.48,1.94-.71,3.05h-.86c.27-1.59.41-2.83.41-3.72,0-1.19-.31-2.03-.93-2.51-.62-.48-1.74-.73-3.35-.73h-1.97c-.89,0-1.56.07-1.99.2-.43.14-.79.42-1.06.84-.27.42-.53,1.1-.78,2.05l-2.46,9.15h2.72c1.27,0,2.21-.38,2.83-1.13.62-.76,1.07-1.52,1.36-2.29.29-.77.48-1.26.58-1.49h.86c-.52,1.64-.96,3.11-1.3,4.43l-.22.86c-.4,1.64-.79,3.4-1.19,5.28h-.86l.11-.82c.12-.67.19-1.25.19-1.75,0-.74-.19-1.32-.56-1.73-.37-.41-1.03-.61-1.97-.61h-2.72l-2.31,8.56c-.2.74-.3,1.29-.3,1.64,0,.59.23.99.69,1.19.46.2,1.3.32,2.51.37l-.19.74c-1.29-.07-3.11-.11-5.47-.11-2.11,0-3.68.04-4.73.11l.19-.74c.89-.05,1.56-.15,1.99-.3.43-.15.79-.43,1.06-.86.27-.42.53-1.1.78-2.05l4.95-18.46c.22-.79.33-1.4.33-1.82,0-.52-.18-.87-.54-1.04-.36-.17-1.01-.28-1.95-.33l.19-.74c2.43.07,6.03.11,10.79.11,3.47,0,5.94-.04,7.4-.11Z"/>
    <path class="cls-3" d="M75.71,40.47c0-.62-.27-.93-.82-.93s-1.08.3-1.53.89c-.45.6-.92,1.56-1.41,2.9l-.52,1.38h-.71l.97-2.72c.5-1.41,1.16-2.41,1.99-2.98.83-.57,1.71-.86,2.62-.86,1.64,0,2.46.78,2.46,2.34,0,.82-.2,1.77-.6,2.87l-3.98,11.28c-.2.6-.3,1.05-.3,1.38,0,.62.3.93.89.93.52,0,1-.29,1.45-.86.45-.57.93-1.55,1.45-2.94l.52-1.38h.71l-.97,2.72c-.5,1.36-1.15,2.34-1.95,2.94s-1.68.89-2.62.89c-1.74,0-2.6-.76-2.6-2.27,0-.72.22-1.7.67-2.94l3.98-11.28c.2-.6.3-1.05.3-1.38Z"/>
    <path class="cls-1" d="M100.49,51.78l-.93,2.72c-.89,2.55-2.39,3.83-4.5,3.83-1.12,0-1.9-.36-2.34-1.08-.2-.3-.3-.71-.3-1.23,0-.67.21-1.64.63-2.9l3.54-10.64c.25-.82.37-1.43.37-1.82,0-.87-.4-1.3-1.19-1.3-.94,0-2.02.69-3.22,2.07s-2.39,3.27-3.55,5.67-2.17,5.07-3.01,8l-.67,2.72h-3.24l4.46-15.96c.17-.64.26-1.1.26-1.38,0-.62-.27-.93-.82-.93s-1.03.27-1.45.82c-.42.55-.89,1.54-1.41,2.98l-.48,1.38h-.71l.93-2.72c.89-2.56,2.37-3.83,4.43-3.83.79,0,1.36.19,1.69.58.33.39.5.92.5,1.62s-.17,1.67-.52,3.01l-1.3,5.1c1.59-3.75,3.11-6.4,4.56-7.96,1.45-1.56,3.04-2.34,4.78-2.34,2.01,0,3.01.93,3.01,2.79,0,.82-.19,1.76-.56,2.83l-3.61,10.87c-.2.6-.3,1.07-.3,1.41,0,.6.3.89.89.89.5,0,.97-.28,1.43-.84.46-.56.94-1.54,1.43-2.96l.48-1.38h.71Z"/>
    <path class="cls-1" d="M119.92,51.78h.71l-.86,2.72c-.42,1.36-1.03,2.34-1.82,2.94-.79.6-1.62.89-2.49.89-.77,0-1.35-.2-1.75-.59-.4-.4-.6-.97-.6-1.71,0-.69.16-1.66.48-2.9l.52-1.9c-1.17,2.51-2.36,4.32-3.57,5.43-1.22,1.12-2.51,1.67-3.87,1.67-1.22,0-2.16-.41-2.85-1.23s-1.02-2.05-1.02-3.68c0-2.06.54-4.29,1.62-6.7s2.54-4.43,4.39-6.08c1.85-1.65,3.85-2.47,6.01-2.47.5,0,.96.16,1.38.48.42.32.72.76.89,1.3l1.86-6.96c.1-.32.15-.66.15-1,0-.5-.19-.86-.58-1.1s-1.04-.35-1.95-.35l.22-.78c1.31-.02,2.5-.16,3.55-.41,1.05-.25,2.06-.62,3.03-1.12l-7.29,26.42c-.15.6-.22,1.02-.22,1.27,0,.69.3,1.04.89,1.04.5,0,.96-.29,1.38-.86.42-.57.87-1.55,1.34-2.94l.45-1.38ZM110.32,55.58c.97-1.04,1.92-2.44,2.87-4.19.94-1.75,1.72-3.62,2.34-5.6l1.3-4.87c-.15-.65-.4-1.12-.76-1.43-.36-.31-.76-.47-1.21-.47-1.51,0-2.94.8-4.28,2.4-1.34,1.6-2.42,3.58-3.24,5.94s-1.23,4.54-1.23,6.55c0,2.16.54,3.24,1.64,3.24.74,0,1.6-.52,2.57-1.56Z"/>
    <path class="cls-1" d="M134.61,45.91c-2.26,1.51-4.84,2.74-7.74,3.68-.27,1.24-.41,2.44-.41,3.61,0,2.38.86,3.57,2.57,3.57,2.13,0,4.04-1.24,5.73-3.72l.6.3c-.79,1.37-1.87,2.54-3.22,3.52-1.35.98-2.77,1.47-4.26,1.47s-2.74-.45-3.61-1.34c-.87-.89-1.3-2.2-1.3-3.91,0-1.89.55-4.01,1.66-6.38,1.1-2.37,2.6-4.38,4.48-6.05,1.88-1.66,3.93-2.49,6.14-2.49.79,0,1.45.21,1.97.63.52.42.78,1.03.78,1.82,0,2.01-1.13,3.77-3.39,5.28ZM131.77,40.27c-.98.93-1.9,2.16-2.75,3.7-.86,1.54-1.51,3.18-1.95,4.91,2.36-.82,4.04-1.61,5.06-2.38.92-.72,1.63-1.59,2.14-2.62.51-1.03.76-2.14.76-3.33,0-.67-.05-1.12-.15-1.34-.1-.22-.25-.33-.45-.33-.79,0-1.68.46-2.66,1.4Z"/>
    <path class="cls-1" d="M154.78,38.76c.4.4.59.91.59,1.53,0,.74-.26,1.38-.78,1.9-.52.52-1.13.78-1.82.78-.45,0-.81-.12-1.08-.35-.27-.24-.41-.56-.41-.99,0-.57.15-1.05.45-1.45.3-.4.71-.71,1.23-.93-.1-.1-.24-.15-.41-.15-1.34,0-2.8,1.45-4.37,4.34s-3.06,6.7-4.45,11.44l-.74,2.94h-3.24l4.46-15.96c.17-.54.26-1.03.26-1.45,0-.57-.26-.86-.78-.86s-1.05.29-1.51.87c-.46.58-.92,1.56-1.4,2.92l-.48,1.38h-.71l.93-2.72c.89-2.56,2.39-3.83,4.5-3.83,1.41,0,2.12.72,2.12,2.16,0,.69-.17,1.71-.52,3.05l-1.19,4.69c1.34-3.6,2.6-6.15,3.78-7.65,1.18-1.5,2.5-2.25,3.96-2.25.67,0,1.2.2,1.6.59Z"/>
  </g>
  <path class="cls-3" d="M80.13,23.65c-3.93,0-7.12,3.19-7.12,7.12s3.19,7.12,7.12,7.12,7.12-3.19,7.12-7.12-3.19-7.12-7.12-7.12ZM80.13,36.86c-3.36,0-6.09-2.72-6.09-6.09s2.72-6.09,6.09-6.09,6.09,2.72,6.09,6.09-2.72,6.09-6.09,6.09Z"/>
  <rect class="cls-3" x="77.23" y="37.11" width=".7" height="1.91" transform="translate(16.93 -23.5) rotate(19.29)"/>
  <text class="cls-2" transform="translate(75.82 32.95)"><tspan x="0" y="0">BC</tspan></text>
</svg>