<?xml version="1.0" encoding="UTF-8"?>
<svg id="Layer_1" data-name="Layer 1" xmlns="http://www.w3.org/2000/svg" viewBox="-10 -5 177.43 51.49">
  <defs>
    <style>
      .cls-1 {
        fill: #111;
      }

      .cls-2 {
        fill: #2e2a6e;
      }
    </style>
  </defs>
  <g>
    <path class="cls-2" d="M15.49,8.71c.87.69,1.3,1.64,1.3,2.85,0,1.34-.41,2.54-1.22,3.6-.82,1.07-1.96,1.89-3.43,2.5-1.48.6-3.16.91-5.04.91h-.77l-1.21,4.58c-.03.12-.09.32-.15.6-.07.28-.1.51-.1.68,0,.32.13.55.38.69.26.14.72.21,1.39.23l-.1.51c-.78-.05-1.85-.08-3.19-.08-1.51,0-2.63.03-3.34.08l.1-.51c.61-.03,1.08-.1,1.39-.2.31-.1.55-.3.73-.59s.35-.76.52-1.42l3.4-12.76c.15-.61.23-1.03.23-1.24,0-.34-.13-.58-.38-.73-.26-.14-.71-.23-1.37-.24l.13-.51c.68.05,1.74.08,3.17.08.83,0,1.44,0,1.85-.03l1.9-.03c1.68,0,2.96.35,3.82,1.05h-.02ZM12.56,16.17c1.08-1.25,1.62-2.93,1.62-5.02,0-1.02-.26-1.76-.77-2.25s-1.35-.73-2.5-.73c-.51,0-.92.06-1.21.19-.29.13-.52.35-.7.65-.18.31-.35.76-.5,1.37l-2.03,7.67h.88c2.41,0,4.15-.62,5.22-1.88h0Z"/>
    <path class="cls-2" d="M27.43,21.67h.49l-.64,1.88c-.34.95-.78,1.63-1.31,2.04s-1.08.63-1.65.63c-.32,0-.61-.06-.85-.18-.24-.12-.43-.28-.56-.49-.15-.26-.23-.55-.23-.91s.06-.76.18-1.21c.12-.44.2-.72.23-.85l.46-1.85c-.83,1.92-1.66,3.31-2.51,4.19-.85.87-1.74,1.3-2.67,1.3-.78,0-1.39-.28-1.8-.85s-.61-1.32-.61-2.26c0-1.39.37-2.94,1.11-4.66.73-1.71,1.7-3.17,2.88-4.38,1.19-1.2,2.39-1.8,3.6-1.8.46,0,.84.17,1.13.51s.46.83.51,1.44l.41-1.6c.95-.03,1.73-.15,2.36-.36l-3.22,11.37c-.02.07-.05.2-.1.4-.05.2-.08.38-.08.55,0,.43.19.64.56.64.75,0,1.42-.88,1.98-2.63l.31-.96h0ZM20.85,24.3c.66-.73,1.33-1.72,1.97-2.95.64-1.23,1.17-2.54,1.58-3.92l.46-1.83c.02-.14.03-.32.03-.56,0-.7-.12-1.26-.37-1.66s-.59-.6-1.05-.6c-.73,0-1.52.57-2.34,1.71-.83,1.14-1.51,2.55-2.07,4.22-.55,1.67-.84,3.25-.84,4.72,0,.7.08,1.21.23,1.52.15.31.38.46.67.46.48,0,1.06-.37,1.72-1.11h0Z"/>
    <path class="cls-2" d="M32.3,23.68c-.05.2-.08.39-.08.56,0,.34.1.6.31.77s.47.26.8.26c.43,0,.83-.18,1.2-.55s.73-1.05,1.1-2.02l.36-1.01h.49l-.54,1.62c-.36,1.07-.83,1.81-1.4,2.25-.57.43-1.28.65-2.12.65-.77,0-1.35-.19-1.72-.56s-.56-.91-.56-1.57c0-.44.08-.94.23-1.47l2.73-9.47h-2.31l.13-.51h2.31l1.13-3.91c.93-.03,1.7-.15,2.31-.36l-1.21,4.28h3.4l-.08.51h-3.47l-2.99,10.53h-.01Z"/>
    <path class="cls-2" d="M50.34,21.69l-.64,1.88c-.61,1.77-1.66,2.65-3.11,2.65-1.2,0-1.8-.53-1.8-1.6,0-.51.14-1.19.41-2l2.45-7.36c.17-.48.26-.91.26-1.29,0-.58-.27-.88-.83-.88-.63,0-1.32.4-2.04,1.2-.72.8-1.46,1.91-2.2,3.36-.73,1.44-1.43,3.11-2.06,5.02l-.93,3.19h-2.23l5.09-17.17c.08-.29.13-.52.13-.69,0-.34-.14-.59-.41-.75s-.72-.24-1.37-.24l.15-.54c1.78-.02,3.33-.37,4.63-1.06l-3.73,12.76c.93-2.09,1.85-3.6,2.78-4.52s1.94-1.38,3.04-1.38c1.39,0,2.08.65,2.08,1.95,0,.55-.13,1.2-.38,1.93l-2.5,7.52c-.14.41-.2.73-.2.98,0,.41.2.61.61.61.34,0,.67-.19.99-.58.31-.38.64-1.07.99-2.04l.33-.96h.5Z"/>
    <path class="cls-2" d="M67.14,7.64c0,.51-.2.97-.59,1.36s-.85.59-1.34.59c-.38,0-.69-.12-.94-.37-.25-.25-.37-.55-.37-.92,0-.07.02-.19.05-.36.07-.37.24-.71.52-1.02.28-.3.61-.49.99-.58-.39-.15-.96-.23-1.67-.23-.95,0-1.84.27-2.71.83-.68.44-1.23,1.1-1.63,1.94-.4.85-.82,2.09-1.25,3.71v.03h4.89c.98-.03,1.76-.15,2.34-.36l-3.47,11.4c-.12.36-.18.67-.18.96,0,.43.2.64.59.64.36,0,.69-.2,1.01-.59s.64-1.08,1.01-2.03l.36-.96h.49l-.67,1.88c-.34.95-.8,1.62-1.35,2.03s-1.17.61-1.81.61c-1.2,0-1.8-.52-1.8-1.57,0-.49.15-1.18.46-2.03l2.88-9.47h-4.89l-4.89,17.19c-.93.04-1.7.15-2.31.36l4.99-17.55h-2.5l.15-.51h2.48c.34-1.24.72-2.26,1.13-3.08.41-.82.92-1.48,1.52-1.99.72-.61,1.55-1.08,2.49-1.38s1.9-.45,2.9-.45c.61,0,1.19.09,1.71.27.52.18.93.46,1.2.84.15.2.23.47.23.8v.02Z"/>
    <path class="cls-2" d="M80.17,21.69l-.64,1.88c-.61,1.77-1.66,2.65-3.11,2.65-.77,0-1.31-.25-1.62-.74-.14-.2-.2-.49-.2-.85,0-.46.14-1.13.43-2l2.45-7.36c.17-.56.26-.99.26-1.26,0-.6-.27-.91-.83-.91-.65,0-1.4.47-2.22,1.43-.84.96-1.65,2.26-2.46,3.92s-1.5,3.51-2.08,5.53l-.46,1.88h-2.23l3.09-11.04c.12-.44.18-.76.18-.96,0-.43-.19-.64-.56-.64s-.71.19-1.01.56c-.29.38-.61,1.07-.98,2.06l-.33.96h-.49l.64-1.88c.61-1.77,1.64-2.65,3.06-2.65.55,0,.94.13,1.17.4.23.26.35.64.35,1.12s-.12,1.16-.36,2.08l-.91,3.52c1.1-2.59,2.15-4.43,3.15-5.5,1.01-1.08,2.1-1.62,3.31-1.62,1.39,0,2.08.64,2.08,1.93,0,.56-.13,1.22-.38,1.95l-2.5,7.52c-.14.41-.2.73-.2.98,0,.41.2.61.61.61.34,0,.67-.19.99-.58.32-.38.64-1.07.99-2.04l.33-.96h.49-.01Z"/>
    <path class="cls-2" d="M93.6,21.69h.49l-.59,1.88c-.29.95-.71,1.62-1.26,2.03-.55.41-1.13.61-1.72.61-.53,0-.94-.14-1.21-.41s-.41-.66-.41-1.19c0-.48.11-1.15.33-2l.36-1.31c-.81,1.73-1.63,2.99-2.48,3.75-.85.77-1.73,1.16-2.68,1.16-.84,0-1.5-.28-1.97-.85s-.7-1.42-.7-2.55c0-1.42.37-2.97,1.12-4.63s1.76-3.07,3.04-4.21c1.28-1.14,2.67-1.71,4.16-1.71.34,0,.66.11.96.33.29.22.49.52.61.91l1.29-4.81c.07-.22.1-.45.1-.69,0-.34-.13-.59-.4-.75-.26-.16-.71-.24-1.35-.24l.15-.54c.91-.02,1.73-.11,2.46-.28s1.43-.43,2.09-.77l-5.04,18.28c-.1.41-.15.7-.15.88,0,.48.21.72.61.72.34,0,.66-.2.96-.59.29-.39.6-1.08.93-2.03l.31-.96v-.02ZM86.96,24.32c.66-.72,1.33-1.68,1.98-2.9.65-1.21,1.19-2.5,1.62-3.87l.9-3.37c-.1-.44-.28-.77-.52-.99s-.52-.32-.84-.32c-1.05,0-2.03.55-2.96,1.66s-1.67,2.48-2.23,4.11-.85,3.14-.85,4.53c0,1.49.37,2.23,1.13,2.23.51,0,1.11-.36,1.77-1.08Z"/>
    <path class="cls-2" d="M103.76,17.63c-1.56,1.05-3.34,1.89-5.35,2.55-.19.86-.28,1.69-.28,2.5,0,1.65.59,2.48,1.77,2.48,1.48,0,2.8-.86,3.97-2.58l.41.2c-.55.95-1.29,1.75-2.22,2.44-.94.67-1.92,1.02-2.95,1.02s-1.89-.31-2.5-.93c-.6-.61-.91-1.52-.91-2.71,0-1.31.38-2.78,1.15-4.42s1.8-3.03,3.1-4.19c1.3-1.15,2.72-1.72,4.25-1.72.55,0,1.01.15,1.37.44s.54.71.54,1.26c0,1.39-.78,2.61-2.34,3.65h0ZM101.79,13.73c-.67.64-1.31,1.5-1.9,2.56-.59,1.07-1.05,2.19-1.35,3.4,1.63-.56,2.8-1.12,3.5-1.65.63-.49,1.13-1.1,1.48-1.81s.52-1.48.52-2.3c0-.46-.03-.77-.1-.93s-.17-.23-.31-.23c-.55,0-1.17.32-1.84.97Z"/>
    <path class="cls-2" d="M117.71,12.69c.27.27.41.62.41,1.06,0,.51-.18.96-.54,1.31-.36.36-.78.54-1.26.54-.31,0-.55-.08-.74-.24-.19-.16-.28-.39-.28-.68,0-.39.1-.72.31-1.01.2-.27.49-.49.85-.64-.07-.07-.16-.1-.28-.1-.93,0-1.93,1-3.02,3s-2.11,4.64-3.08,7.91l-.51,2.03h-2.23l3.09-11.04c.12-.37.18-.71.18-1.01,0-.39-.18-.59-.54-.59s-.72.2-1.05.6-.63,1.08-.97,2.02l-.33.96h-.49l.64-1.88c.61-1.77,1.66-2.65,3.11-2.65.98,0,1.47.5,1.47,1.49,0,.48-.12,1.19-.36,2.11l-.83,3.24c.93-2.49,1.8-4.25,2.61-5.28.82-1.04,1.73-1.56,2.74-1.56.46,0,.84.14,1.11.41h.01Z"/>
  </g>
  <g>
    <g>
      <path class="cls-1" d="M143.13.7c-10.37-2.85-21.07,3.24-23.92,13.6-2.85,10.36,3.24,21.07,13.6,23.92,10.37,2.85,21.07-3.24,23.92-13.6,2.85-10.37-3.24-21.07-13.6-23.92ZM133.55,35.49c-8.86-2.44-14.05-11.58-11.61-20.44,2.44-8.86,11.58-14.05,20.44-11.61,8.86,2.44,14.05,11.58,11.61,20.44-2.44,8.86-11.58,14.05-20.44,11.61Z"/>
      <path class="cls-1" d="M124.23,32.18l3.22,3.26-5.92,5.84c-.29.28-.76.28-1.04,0l-2.18-2.21c-.28-.29-.28-.76,0-1.04l5.92-5.84h0Z"/>
    </g>
    <g>
      <path class="cls-2" d="M125.21,25.93l2.4-13.63h5.61c.86,0,1.57.13,2.14.38s1,.61,1.28,1.08.4,1.02.36,1.63c-.03.68-.21,1.3-.56,1.83-.35.53-.81.96-1.37,1.28s-1.2.5-1.9.55l.33-.21c.57.03,1.06.17,1.47.43s.72.6.94,1.04.31.92.28,1.46c-.04.84-.29,1.56-.75,2.19-.46.63-1.08,1.12-1.85,1.46-.77.34-1.64.51-2.6.51h-5.77ZM128.21,23.83h2.73c.53,0,.99-.09,1.36-.28s.67-.45.9-.78c.22-.34.34-.72.35-1.17.03-.5-.13-.91-.47-1.21-.34-.3-.84-.44-1.49-.44h-2.69l-.68,3.89h0ZM129.24,18h2.52c.74,0,1.33-.19,1.77-.56s.67-.89.7-1.54c.01-.32-.04-.6-.17-.83-.13-.23-.33-.4-.61-.52s-.63-.18-1.06-.16h-2.52l-.62,3.62h-.01Z"/>
      <path class="cls-2" d="M143.77,26.16c-1.22,0-2.25-.24-3.09-.73-.84-.49-1.46-1.18-1.86-2.05-.4-.88-.57-1.9-.52-3.07.05-1.18.28-2.27.7-3.27s.98-1.87,1.68-2.62,1.53-1.33,2.48-1.73c.95-.41,1.96-.61,3.07-.61,1.63,0,2.91.41,3.82,1.23s1.37,1.97,1.37,3.46h-2.9c-.01-.72-.25-1.3-.72-1.7-.46-.41-1.14-.61-2-.61-.67,0-1.3.14-1.86.42-.56.28-1.06.67-1.49,1.18-.42.5-.76,1.11-1.02,1.79s-.39,1.44-.42,2.25c-.04.77.06,1.45.3,1.99.24.55.6.98,1.09,1.28.48.3,1.08.44,1.78.44.87,0,1.6-.19,2.18-.56s1.02-.92,1.31-1.62h2.9c-.33.96-.84,1.78-1.49,2.46-.65.67-1.44,1.19-2.33,1.55s-1.89.53-2.97.53Z"/>
    </g>
  </g>
  <rect class="cls-1" x="59.18" y="28.48" width="64.68" height="1.09"/>
</svg>