<?xml version="1.0" encoding="UTF-8"?>
<svg id="Layer_6" xmlns="http://www.w3.org/2000/svg" version="1.1" viewBox="0 0 154.51 40.72">
  <!-- Generator: Adobe Illustrator 30.3.0, SVG Export Plug-In . SVG Version: 2.1.3 Build 182)  -->
  <defs>
    <style>
      .st0 {
        fill: #111;
      }

      .st1 {
        fill: #2e2a6e;
      }
    </style>
  </defs>
  <g>
    <path class="st1" d="M15.2,8.55c.85.68,1.27,1.61,1.27,2.8,0,1.31-.4,2.49-1.2,3.54-.8,1.05-1.93,1.86-3.37,2.45-1.45.59-3.1.89-4.95.89h-.76l-1.19,4.49c-.03.12-.09.32-.15.59-.07.28-.1.5-.1.67,0,.32.13.54.38.68.26.14.71.21,1.36.23l-.1.5c-.77-.05-1.82-.08-3.13-.08-1.48,0-2.58.03-3.28.08l.1-.5c.6-.03,1.06-.1,1.36-.2.31-.1.54-.3.72-.58s.35-.75.51-1.39l3.34-12.52c.15-.6.23-1.01.23-1.21,0-.34-.13-.57-.38-.72-.26-.14-.7-.23-1.34-.24l.13-.5c.67.05,1.71.08,3.11.08.81,0,1.41,0,1.82-.03l1.87-.03c1.65,0,2.9.35,3.75,1.03h-.02ZM12.33,15.87c1.06-1.22,1.59-2.87,1.59-4.93,0-1-.26-1.73-.76-2.21s-1.32-.72-2.45-.72c-.5,0-.9.06-1.19.19-.29.13-.51.35-.69.64-.18.31-.35.75-.49,1.34l-2,7.53h.86c2.36,0,4.07-.61,5.13-1.85h0Z"/>
    <path class="st1" d="M26.92,21.27h.48l-.63,1.85c-.34.93-.77,1.6-1.28,2s-1.06.62-1.62.62c-.32,0-.6-.06-.83-.18-.24-.12-.42-.28-.55-.48-.15-.26-.23-.54-.23-.89s.06-.75.18-1.19c.12-.43.2-.71.23-.83l.45-1.82c-.81,1.89-1.63,3.25-2.46,4.11-.83.85-1.71,1.27-2.62,1.27-.77,0-1.36-.28-1.77-.83s-.6-1.29-.6-2.22c0-1.36.37-2.88,1.09-4.57.72-1.68,1.67-3.11,2.82-4.3,1.17-1.18,2.34-1.77,3.54-1.77.45,0,.82.17,1.11.5s.45.81.5,1.41l.4-1.57c.93-.03,1.7-.15,2.32-.36l-3.16,11.16c-.02.07-.05.2-.1.4-.05.2-.08.38-.08.54,0,.42.19.63.55.63.74,0,1.39-.86,1.95-2.58l.31-.94h0ZM20.46,23.85c.65-.72,1.3-1.69,1.94-2.89.63-1.2,1.15-2.49,1.55-3.85l.45-1.8c.02-.14.03-.32.03-.55,0-.69-.12-1.23-.37-1.63s-.58-.59-1.03-.59c-.72,0-1.49.56-2.3,1.68-.81,1.12-1.48,2.5-2.03,4.14-.54,1.64-.82,3.19-.82,4.63,0,.69.08,1.19.23,1.49.15.31.38.45.66.45.47,0,1.04-.37,1.69-1.09h0Z"/>
    <path class="st1" d="M31.7,23.24c-.05.2-.08.39-.08.55,0,.34.1.59.31.76s.46.26.78.26c.42,0,.81-.18,1.18-.54s.72-1.03,1.08-1.99l.36-.99h.48l-.53,1.59c-.36,1.05-.81,1.78-1.37,2.21-.56.42-1.25.64-2.08.64-.76,0-1.32-.19-1.69-.55s-.55-.89-.55-1.54c0-.43.08-.92.23-1.44l2.68-9.29h-2.27l.13-.5h2.27l1.11-3.84c.91-.03,1.67-.15,2.27-.36l-1.19,4.2h3.34l-.08.5h-3.41l-2.93,10.33h0Z"/>
    <path class="st1" d="M49.4,21.29l-.63,1.85c-.6,1.74-1.63,2.6-3.05,2.6-1.18,0-1.77-.52-1.77-1.57,0-.5.14-1.17.4-1.97l2.4-7.22c.17-.47.26-.89.26-1.26,0-.57-.27-.86-.81-.86-.62,0-1.29.4-2,1.18-.71.78-1.43,1.88-2.16,3.3-.72,1.41-1.4,3.05-2.02,4.93l-.91,3.13h-2.19l5-16.85c.08-.29.13-.51.13-.68,0-.34-.14-.58-.4-.74s-.71-.24-1.34-.24l.15-.53c1.75-.02,3.27-.37,4.54-1.04l-3.66,12.52c.91-2.05,1.82-3.54,2.73-4.43s1.91-1.35,2.98-1.35c1.36,0,2.04.64,2.04,1.92,0,.54-.13,1.18-.38,1.9l-2.45,7.38c-.14.4-.2.72-.2.96,0,.4.2.6.6.6.34,0,.66-.19.97-.57.31-.38.63-1.05.97-2l.33-.94h.49Z"/>
    <path class="st1" d="M65.9,7.5c0,.5-.2.95-.58,1.33s-.83.58-1.31.58c-.38,0-.68-.12-.92-.37-.25-.25-.37-.54-.37-.9,0-.07.02-.19.05-.36.07-.37.24-.7.51-1,.28-.3.6-.48.97-.57-.39-.15-.94-.23-1.64-.23-.93,0-1.81.27-2.66.81-.67.43-1.2,1.08-1.6,1.91-.4.83-.8,2.05-1.22,3.64v.03h4.8c.96-.03,1.73-.15,2.3-.36l-3.41,11.19c-.12.36-.18.66-.18.94,0,.42.2.63.58.63.36,0,.68-.2.99-.58s.63-1.06.99-2l.36-.94h.48l-.66,1.85c-.34.93-.78,1.59-1.32,2s-1.15.6-1.78.6c-1.18,0-1.77-.51-1.77-1.54,0-.48.15-1.16.45-2l2.82-9.29h-4.8l-4.8,16.87c-.91.04-1.67.15-2.27.36l4.9-17.23h-2.45l.15-.5h2.43c.34-1.21.71-2.22,1.11-3.02.4-.8.9-1.45,1.49-1.96.71-.6,1.52-1.06,2.44-1.35s1.87-.44,2.84-.44c.6,0,1.17.09,1.68.27.51.18.91.45,1.18.82.15.2.23.46.23.78v.02Z"/>
    <path class="st1" d="M78.68,21.29l-.63,1.85c-.6,1.74-1.63,2.6-3.05,2.6-.76,0-1.28-.25-1.59-.73-.14-.2-.2-.48-.2-.83,0-.45.14-1.11.42-1.97l2.4-7.22c.17-.55.26-.97.26-1.23,0-.59-.27-.89-.81-.89-.64,0-1.37.46-2.18,1.4-.82.94-1.62,2.22-2.41,3.85s-1.47,3.45-2.04,5.43l-.45,1.85h-2.19l3.03-10.83c.12-.43.18-.75.18-.94,0-.42-.19-.63-.55-.63s-.7.19-.99.55c-.29.38-.6,1.05-.96,2.02l-.33.94h-.48l.63-1.85c.6-1.74,1.61-2.6,3-2.6.54,0,.92.13,1.15.4.23.26.35.63.35,1.1s-.12,1.14-.36,2.04l-.89,3.46c1.08-2.54,2.11-4.35,3.09-5.4.99-1.06,2.06-1.59,3.25-1.59,1.36,0,2.04.63,2.04,1.9,0,.55-.13,1.2-.38,1.92l-2.45,7.38c-.14.4-.2.72-.2.96,0,.4.2.6.6.6.34,0,.66-.19.97-.57.32-.38.63-1.05.97-2l.33-.94h.48,0Z"/>
    <path class="st1" d="M91.86,21.29h.48l-.58,1.85c-.29.93-.7,1.59-1.23,2-.54.4-1.11.6-1.69.6-.52,0-.92-.14-1.19-.4s-.4-.65-.4-1.17c0-.47.11-1.13.33-1.97l.36-1.28c-.79,1.7-1.6,2.93-2.43,3.68-.83.76-1.7,1.14-2.63,1.14-.82,0-1.47-.28-1.94-.83s-.69-1.39-.69-2.5c0-1.39.37-2.91,1.1-4.54s1.73-3.01,2.98-4.13c1.25-1.12,2.62-1.68,4.08-1.68.34,0,.65.11.94.33.29.22.48.51.6.89l1.26-4.72c.07-.22.1-.44.1-.68,0-.34-.13-.58-.4-.74-.26-.16-.7-.24-1.32-.24l.15-.53c.89-.02,1.7-.11,2.41-.28s1.4-.42,2.05-.76l-4.95,17.94c-.1.4-.15.69-.15.86,0,.47.21.71.6.71.34,0,.65-.2.94-.58.29-.39.59-1.06.91-2l.31-.94v-.02ZM85.35,23.87c.65-.71,1.3-1.65,1.95-2.84.64-1.19,1.17-2.45,1.59-3.8l.88-3.31c-.1-.43-.28-.76-.51-.97s-.51-.32-.82-.32c-1.03,0-2,.54-2.9,1.63s-1.64,2.43-2.19,4.03-.83,3.08-.83,4.44c0,1.46.37,2.19,1.11,2.19.5,0,1.09-.36,1.74-1.06Z"/>
    <path class="st1" d="M101.84,17.3c-1.53,1.03-3.28,1.86-5.25,2.5-.19.84-.28,1.66-.28,2.45,0,1.62.58,2.43,1.74,2.43,1.45,0,2.75-.84,3.89-2.53l.4.2c-.54.93-1.26,1.72-2.18,2.39-.92.66-1.89,1-2.89,1s-1.86-.31-2.45-.91c-.59-.6-.89-1.49-.89-2.66,0-1.28.38-2.73,1.13-4.34s1.77-2.97,3.04-4.11c1.27-1.13,2.67-1.69,4.17-1.69.54,0,.99.15,1.34.43s.53.7.53,1.23c0,1.36-.77,2.56-2.3,3.59h0ZM99.9,13.48c-.66.63-1.28,1.47-1.87,2.51-.58,1.05-1.03,2.15-1.32,3.34,1.6-.55,2.75-1.1,3.44-1.62.62-.48,1.11-1.08,1.45-1.78s.51-1.45.51-2.26c0-.45-.03-.76-.1-.91s-.17-.23-.31-.23c-.54,0-1.15.32-1.81.95Z"/>
    <path class="st1" d="M115.53,12.45c.27.27.4.61.4,1.04,0,.5-.18.94-.53,1.28-.36.36-.77.53-1.23.53-.31,0-.54-.08-.73-.24-.19-.16-.28-.39-.28-.67,0-.39.1-.71.31-.99.2-.27.48-.48.83-.63-.07-.07-.16-.1-.28-.1-.91,0-1.9.98-2.96,2.94s-2.07,4.55-3.02,7.76l-.5,2h-2.19l3.03-10.83c.12-.37.18-.7.18-.99,0-.39-.18-.58-.53-.58s-.71.2-1.03.59-.62,1.06-.95,1.99l-.33.94h-.48l.63-1.85c.6-1.74,1.63-2.6,3.05-2.6.96,0,1.44.49,1.44,1.46,0,.47-.12,1.17-.36,2.07l-.81,3.18c.91-2.44,1.77-4.17,2.56-5.19.8-1.02,1.7-1.53,2.69-1.53.45,0,.82.14,1.09.4h0Z"/>
  </g>
  <g>
    <g>
      <path class="st0" d="M140.48.69c-10.17-2.8-20.68,3.18-23.48,13.34-2.8,10.16,3.18,20.68,13.34,23.48,10.17,2.8,20.68-3.18,23.48-13.34,2.8-10.17-3.18-20.68-13.34-23.48ZM131.08,34.83c-8.69-2.39-13.79-11.37-11.4-20.06,2.39-8.69,11.37-13.79,20.06-11.4s13.79,11.37,11.4,20.06c-2.39,8.69-11.37,13.79-20.06,11.4Z"/>
      <path class="st0" d="M121.92,31.58l3.16,3.2-5.81,5.74c-.28.28-.74.27-1.02,0l-2.14-2.17c-.28-.28-.27-.74,0-1.02l5.81-5.74h0Z"/>
    </g>
    <g>
      <path class="st1" d="M122.89,25.45l2.35-13.37h5.5c.84,0,1.54.13,2.1.38s.98.6,1.25,1.06.4,1,.36,1.6c-.03.67-.21,1.27-.55,1.8-.35.52-.79.94-1.34,1.25s-1.18.49-1.87.54l.33-.21c.56.03,1.04.17,1.44.42s.71.59.92,1.02.31.9.28,1.43c-.04.82-.29,1.53-.74,2.15-.45.62-1.06,1.1-1.82,1.43-.76.34-1.61.5-2.55.5h-5.66ZM125.83,23.38h2.68c.52,0,.97-.09,1.33-.28s.66-.44.88-.77c.22-.34.34-.71.35-1.15.03-.49-.13-.89-.46-1.19-.34-.3-.82-.43-1.46-.43h-2.64l-.67,3.82h0ZM126.84,17.67h2.47c.73,0,1.3-.19,1.74-.55s.66-.87.69-1.51c0-.32-.04-.59-.17-.81-.13-.23-.33-.4-.6-.51s-.62-.18-1.04-.16h-2.47l-.61,3.56h0Z"/>
      <path class="st1" d="M141.1,25.68c-1.2,0-2.21-.24-3.03-.72-.82-.48-1.43-1.16-1.83-2.01-.4-.86-.56-1.87-.51-3.01.05-1.16.28-2.23.69-3.21s.96-1.84,1.65-2.57,1.5-1.3,2.43-1.7c.93-.4,1.93-.6,3.01-.6,1.6,0,2.85.4,3.75,1.2s1.34,1.94,1.34,3.4h-2.84c0-.71-.25-1.27-.71-1.67-.45-.4-1.12-.6-1.97-.6-.66,0-1.27.14-1.83.41-.55.28-1.04.66-1.46,1.16-.41.49-.75,1.09-1,1.76s-.39,1.41-.41,2.21c-.04.76.06,1.42.3,1.96.24.54.59.96,1.07,1.25.47.3,1.06.43,1.75.43.85,0,1.57-.19,2.14-.55s1-.9,1.28-1.59h2.84c-.33.94-.82,1.75-1.46,2.41-.64.66-1.41,1.17-2.29,1.52s-1.86.52-2.91.52Z"/>
    </g>
  </g>
  <rect class="st0" x="58.09" y="27.95" width="63.48" height="1.07"/>
</svg>