<?xml version="1.0" encoding="utf-8"?>
<!-- Generator: Adobe Illustrator 27.2.0, SVG Export Plug-In . SVG Version: 6.00 Build 0)  -->
<svg version="1.1" id="Layer_1" xmlns="http://www.w3.org/2000/svg" xmlns:xlink="http://www.w3.org/1999/xlink" x="0px" y="0px"
	 viewBox="0 0 512 512" style="enable-background:new 0 0 512 512;" xml:space="preserve">
<style type="text/css">
	.st0{fill:url(#SVGID_1_);}
	.st1{fill:url(#SVGID_00000047752517925797183030000001066581333654170300_);}
	.st2{fill:url(#SVGID_00000106145877888167065680000007560241713389743493_);}
	.st3{fill:url(#SVGID_00000168826817311066957570000010323326733461099707_);}
	.st4{fill:url(#SVGID_00000183245517527820017690000005206124202890530444_);}
	.st5{fill:url(#SVGID_00000033349427598436933970000006819591916726757805_);}
	.st6{fill:url(#SVGID_00000032638098168653038570000005141090333142820030_);}
	.st7{fill:url(#SVGID_00000173126588838210759750000009261384113265908144_);}
	.st8{fill:url(#SVGID_00000111163402175379525840000002093843655249550000_);}
	.st9{fill:#FDB026;}
	.st10{fill:url(#SVGID_00000180356939777449161690000013266297716068184499_);}
	.st11{fill:url(#SVGID_00000109732015511428292110000005720278478250903222_);}
	.st12{fill:url(#SVGID_00000096747525075514542050000000595748395609995923_);}
	.st13{fill:url(#SVGID_00000052073010403985499940000006530361887750455194_);}
	.st14{fill:url(#SVGID_00000088817625332120068160000004636268253244918686_);}
	.st15{fill:url(#SVGID_00000122712142503314235810000011706915658728475785_);}
	.st16{fill:url(#SVGID_00000057838682444292528050000010220133811362542010_);}
	.st17{fill:url(#SVGID_00000134960807773424059960000003531684684208561840_);}
	.st18{fill:url(#SVGID_00000013872109370633068130000002007463538553266828_);}
	.st19{fill:url(#SVGID_00000036957953106682608220000003191267245095012520_);}
	.st20{fill:url(#SVGID_00000153692477320459610560000006572343649453147576_);}
	.st21{fill:url(#SVGID_00000159440858994898827970000000336542918927711145_);}
	.st22{fill:url(#SVGID_00000013156907822160405630000012898982742243249330_);}
	.st23{fill:url(#SVGID_00000112595805629213787010000009277173912611793281_);}
	.st24{fill:url(#SVGID_00000034792307219390538730000008727683573401519543_);}
	.st25{fill:url(#SVGID_00000130617764613407129360000004927082881194335679_);}
	.st26{fill:url(#SVGID_00000078745402965811533170000014806902195600852639_);}
	.st27{fill:url(#SVGID_00000015336617502527161440000011133824948922004355_);}
	.st28{fill:url(#SVGID_00000083066465831752891090000003637772875475621255_);}
	.st29{fill:url(#SVGID_00000005232131342715036360000018276752351242431879_);}
	.st30{fill:url(#SVGID_00000047048898736558138890000008877115481159841695_);}
	.st31{fill:url(#SVGID_00000125598880518799379240000001470782329094896560_);}
</style>
<g>
	
		<radialGradient id="SVGID_1_" cx="-54.5751" cy="697.2088" r="11" gradientTransform="matrix(-24.75 0 0 22.4375 -1034.3745 -15331.5908)" gradientUnits="userSpaceOnUse">
		<stop  offset="0" style="stop-color:#FCA148"/>
		<stop  offset="0.5076" style="stop-color:#FFC32B"/>
		<stop  offset="0.6894" style="stop-color:#ECA332"/>
		<stop  offset="1" style="stop-color:#F8A528"/>
	</radialGradient>
	<path class="st0" d="M242.6,126.8c8.5-19.5,27.2-28.1,46.1-21.7c20.3,6.9,29.2,27.5,18,56.5c-6.2,16.2-13.6,38.5-13.6,38.5
		s-6.7,8.9-9.7,11.7c33.2,16.9,55.9,51.6,55.9,91.6c0,10.8-1.7,21.3-4.8,31.1l-10.3,74.1c0,0-74.2-1.4-81-1.4
		c-6.7,0-108.8,3.8-108.8-103.8c0-65,43.8-80.4,56.7-89.7c12.9-9.3,25.7-23.2,30.8-32.7C230.6,165.1,235.7,142.5,242.6,126.8z"/>
	
		<radialGradient id="SVGID_00000144329985035516500140000002764815412768305051_" cx="-18.4347" cy="683.4996" r="11" gradientTransform="matrix(5.3457 21.375 21.6569 -5.4162 -14467.0029 4397.7412)" gradientUnits="userSpaceOnUse">
		<stop  offset="0.3457" style="stop-color:#D5A75B;stop-opacity:0"/>
		<stop  offset="0.4276" style="stop-color:#D5A75B"/>
	</radialGradient>
	<path style="fill:url(#SVGID_00000144329985035516500140000002764815412768305051_);" d="M242.6,126.8
		c8.5-19.5,27.2-28.1,46.1-21.7c20.3,6.9,29.2,27.5,18,56.5c-6.2,16.2-13.6,38.5-13.6,38.5s-6.7,8.9-9.7,11.7
		c33.2,16.9,55.9,51.6,55.9,91.6c0,10.8-1.7,21.3-4.8,31.1l-10.3,74.1c0,0-74.2-1.4-81-1.4c-6.7,0-108.8,3.8-108.8-103.8
		c0-65,43.8-80.4,56.7-89.7c12.9-9.3,25.7-23.2,30.8-32.7C230.6,165.1,235.7,142.5,242.6,126.8z"/>
	
		<radialGradient id="SVGID_00000183224287669685770140000010377268036605446799_" cx="5.3715" cy="712.4126" r="11" gradientTransform="matrix(0.875 10.6875 7.6298 -0.6247 -5150.75 718.889)" gradientUnits="userSpaceOnUse">
		<stop  offset="0.5298" style="stop-color:#F59842"/>
		<stop  offset="1" style="stop-color:#F59842;stop-opacity:0"/>
	</radialGradient>
	<path style="fill:url(#SVGID_00000183224287669685770140000010377268036605446799_);" d="M242.6,126.8
		c8.5-19.5,27.2-28.1,46.1-21.7c20.3,6.9,29.2,27.5,18,56.5c-6.2,16.2-13.6,38.5-13.6,38.5s-6.7,8.9-9.7,11.7
		c33.2,16.9,55.9,51.6,55.9,91.6c0,10.8-1.7,21.3-4.8,31.1l-10.3,74.1c0,0-74.2-1.4-81-1.4c-6.7,0-108.8,3.8-108.8-103.8
		c0-65,43.8-80.4,56.7-89.7c12.9-9.3,25.7-23.2,30.8-32.7C230.6,165.1,235.7,142.5,242.6,126.8z"/>
	
		<linearGradient id="SVGID_00000051368612442601289300000017759111996019137975_" gradientUnits="userSpaceOnUse" x1="236.9253" y1="98.1081" x2="236.9253" y2="220.4831" gradientTransform="matrix(1 0 0 -1 0 511.8898)">
		<stop  offset="0" style="stop-color:#DB7D5C"/>
		<stop  offset="1" style="stop-color:#FFA746;stop-opacity:0"/>
	</linearGradient>
	<path style="fill:url(#SVGID_00000051368612442601289300000017759111996019137975_);" d="M242.6,126.8
		c8.5-19.5,27.2-28.1,46.1-21.7c20.3,6.9,29.2,27.5,18,56.5c-6.2,16.2-13.6,38.5-13.6,38.5s-6.7,8.9-9.7,11.7
		c33.2,16.9,55.9,51.6,55.9,91.6c0,10.8-1.7,21.3-4.8,31.1l-10.3,74.1c0,0-74.2-1.4-81-1.4c-6.7,0-108.8,3.8-108.8-103.8
		c0-65,43.8-80.4,56.7-89.7c12.9-9.3,25.7-23.2,30.8-32.7C230.6,165.1,235.7,142.5,242.6,126.8z"/>
	
		<radialGradient id="SVGID_00000068637066396180123020000004379767699047425691_" cx="1.4983" cy="600.0046" r="11" gradientTransform="matrix(7.0625 -0.1875 -0.141 -5.3099 362.8586 3437.0708)" gradientUnits="userSpaceOnUse">
		<stop  offset="0.1934" style="stop-color:#C36F14"/>
		<stop  offset="0.6436" style="stop-color:#F59842;stop-opacity:0"/>
	</radialGradient>
	<path style="fill:url(#SVGID_00000068637066396180123020000004379767699047425691_);" d="M242.6,126.8
		c8.5-19.5,27.2-28.1,46.1-21.7c20.3,6.9,29.2,27.5,18,56.5c-6.2,16.2-13.6,38.5-13.6,38.5s-6.7,8.9-9.7,11.7
		c33.2,16.9,55.9,51.6,55.9,91.6c0,10.8-1.7,21.3-4.8,31.1l-10.3,74.1c0,0-74.2-1.4-81-1.4c-6.7,0-108.8,3.8-108.8-103.8
		c0-65,43.8-80.4,56.7-89.7c12.9-9.3,25.7-23.2,30.8-32.7C230.6,165.1,235.7,142.5,242.6,126.8z"/>
	
		<radialGradient id="SVGID_00000030472517234153325730000002004955574134154921_" cx="-10.0137" cy="614.6996" r="11" gradientTransform="matrix(8.125 -0.875 -0.8115 -7.5357 859.4436 4919.6357)" gradientUnits="userSpaceOnUse">
		<stop  offset="0.216" style="stop-color:#C36F14"/>
		<stop  offset="0.7013" style="stop-color:#F59842;stop-opacity:0"/>
	</radialGradient>
	<path style="fill:url(#SVGID_00000030472517234153325730000002004955574134154921_);" d="M242.6,126.8
		c8.5-19.5,27.2-28.1,46.1-21.7c20.3,6.9,29.2,27.5,18,56.5c-6.2,16.2-13.6,38.5-13.6,38.5s-6.7,8.9-9.7,11.7
		c33.2,16.9,55.9,51.6,55.9,91.6c0,10.8-1.7,21.3-4.8,31.1l-10.3,74.1c0,0-74.2-1.4-81-1.4c-6.7,0-108.8,3.8-108.8-103.8
		c0-65,43.8-80.4,56.7-89.7c12.9-9.3,25.7-23.2,30.8-32.7C230.6,165.1,235.7,142.5,242.6,126.8z"/>
	
		<radialGradient id="SVGID_00000002367321259619843190000009982241949237927836_" cx="3.5173" cy="627.476" r="11" gradientTransform="matrix(7.125 9.374937e-02 0.1255 -9.5403 185.0315 6319.6382)" gradientUnits="userSpaceOnUse">
		<stop  offset="0.287" style="stop-color:#C36F14"/>
		<stop  offset="0.5697" style="stop-color:#F59842;stop-opacity:0"/>
	</radialGradient>
	<path style="fill:url(#SVGID_00000002367321259619843190000009982241949237927836_);" d="M242.6,126.8
		c8.5-19.5,27.2-28.1,46.1-21.7c20.3,6.9,29.2,27.5,18,56.5c-6.2,16.2-13.6,38.5-13.6,38.5s-6.7,8.9-9.7,11.7
		c33.2,16.9,55.9,51.6,55.9,91.6c0,10.8-1.7,21.3-4.8,31.1l-10.3,74.1c0,0-74.2-1.4-81-1.4c-6.7,0-108.8,3.8-108.8-103.8
		c0-65,43.8-80.4,56.7-89.7c12.9-9.3,25.7-23.2,30.8-32.7C230.6,165.1,235.7,142.5,242.6,126.8z"/>
	
		<radialGradient id="SVGID_00000134950445924907450400000017065773477680768642_" cx="-17.4355" cy="600.6943" r="11" gradientTransform="matrix(6.8125 -1.875 -2.0073 -7.2933 1616.1794 4721.561)" gradientUnits="userSpaceOnUse">
		<stop  offset="0.1742" style="stop-color:#C56736"/>
		<stop  offset="0.6436" style="stop-color:#F59842;stop-opacity:0"/>
	</radialGradient>
	<path style="fill:url(#SVGID_00000134950445924907450400000017065773477680768642_);" d="M242.6,126.8
		c8.5-19.5,27.2-28.1,46.1-21.7c20.3,6.9,29.2,27.5,18,56.5c-6.2,16.2-13.6,38.5-13.6,38.5s-6.7,8.9-9.7,11.7
		c33.2,16.9,55.9,51.6,55.9,91.6c0,10.8-1.7,21.3-4.8,31.1l-10.3,74.1c0,0-74.2-1.4-81-1.4c-6.7,0-108.8,3.8-108.8-103.8
		c0-65,43.8-80.4,56.7-89.7c12.9-9.3,25.7-23.2,30.8-32.7C230.6,165.1,235.7,142.5,242.6,126.8z"/>
	
		<radialGradient id="SVGID_00000139288566099790860460000016489316402294177189_" cx="273.1635" cy="710.8011" r="11" gradientTransform="matrix(0.625 1.3125 3.0302 -1.4429 -2048.7676 877.39)" gradientUnits="userSpaceOnUse">
		<stop  offset="0.4792" style="stop-color:#FFC054"/>
		<stop  offset="1" style="stop-color:#FFC054;stop-opacity:0"/>
	</radialGradient>
	<path style="fill:url(#SVGID_00000139288566099790860460000016489316402294177189_);" d="M242.6,126.8
		c8.5-19.5,27.2-28.1,46.1-21.7c20.3,6.9,29.2,27.5,18,56.5c-6.2,16.2-13.6,38.5-13.6,38.5s-6.7,8.9-9.7,11.7
		c33.2,16.9,55.9,51.6,55.9,91.6c0,10.8-1.7,21.3-4.8,31.1l-10.3,74.1c0,0-74.2-1.4-81-1.4c-6.7,0-108.8,3.8-108.8-103.8
		c0-65,43.8-80.4,56.7-89.7c12.9-9.3,25.7-23.2,30.8-32.7C230.6,165.1,235.7,142.5,242.6,126.8z"/>
	<path class="st9" d="M242.6,126.8c8.5-19.5,27.2-28.1,46.1-21.7c20.3,6.9,29.2,27.5,18,56.5c-6.2,16.2-13.6,38.5-13.6,38.5
		l-9.7,11.7c-47.5,24.2-92.2,1.8-92.2,1.8c12.9-9.3,25.7-23.2,30.8-32.7C230.6,165.1,235.7,142.5,242.6,126.8z"/>
	
		<radialGradient id="SVGID_00000100354751232283796900000010799736428951333530_" cx="-33.0671" cy="745.1155" r="11" gradientTransform="matrix(-7.3749 16.4376 5.4889 2.4627 -4039.365 -1152.632)" gradientUnits="userSpaceOnUse">
		<stop  offset="0.1649" style="stop-color:#FFCF47"/>
		<stop  offset="0.7486" style="stop-color:#FFB126"/>
	</radialGradient>
	<path style="fill:url(#SVGID_00000100354751232283796900000010799736428951333530_);" d="M242.6,126.8
		c8.5-19.5,27.2-28.1,46.1-21.7c20.3,6.9,29.2,27.5,18,56.5c-6.2,16.2-13.6,38.5-13.6,38.5l-9.7,11.7c-47.5,24.2-92.2,1.8-92.2,1.8
		c12.9-9.3,25.7-23.2,30.8-32.7C230.6,165.1,235.7,142.5,242.6,126.8z"/>
	
		<radialGradient id="SVGID_00000049904298738005316150000008506422218561779869_" cx="-23.9936" cy="748.8055" r="11" gradientTransform="matrix(-2.3125 12.125 3.8977 0.7434 -2762.2539 -169.5632)" gradientUnits="userSpaceOnUse">
		<stop  offset="0.8013" style="stop-color:#D5A75B"/>
		<stop  offset="1" style="stop-color:#D5A75B;stop-opacity:0"/>
	</radialGradient>
	<path style="fill:url(#SVGID_00000049904298738005316150000008506422218561779869_);" d="M242.6,126.8
		c8.5-19.5,27.2-28.1,46.1-21.7c20.3,6.9,29.2,27.5,18,56.5c-6.2,16.2-13.6,38.5-13.6,38.5l-9.7,11.7c-47.5,24.2-92.2,1.8-92.2,1.8
		c12.9-9.3,25.7-23.2,30.8-32.7C230.6,165.1,235.7,142.5,242.6,126.8z"/>
	
		<radialGradient id="SVGID_00000054224328442316560950000000312091082030391962_" cx="-4.2575" cy="908.1943" r="11" gradientTransform="matrix(-2.5312 3.7188 1.4979 1.0196 -1145.6018 -689.9138)" gradientUnits="userSpaceOnUse">
		<stop  offset="0.4444" style="stop-color:#FFC22B"/>
		<stop  offset="1" style="stop-color:#FFC22C;stop-opacity:0"/>
	</radialGradient>
	<path style="fill:url(#SVGID_00000054224328442316560950000000312091082030391962_);" d="M242.6,126.8
		c8.5-19.5,27.2-28.1,46.1-21.7c20.3,6.9,29.2,27.5,18,56.5c-6.2,16.2-13.6,38.5-13.6,38.5l-9.7,11.7c-47.5,24.2-92.2,1.8-92.2,1.8
		c12.9-9.3,25.7-23.2,30.8-32.7C230.6,165.1,235.7,142.5,242.6,126.8z"/>
	
		<radialGradient id="SVGID_00000137840370448693372720000005820782177401843842_" cx="-8.775" cy="842.9515" r="11" gradientTransform="matrix(-1.9375 5.4375 2.2298 0.7945 -1611.2205 -473.6227)" gradientUnits="userSpaceOnUse">
		<stop  offset="0" style="stop-color:#FFCE47"/>
		<stop  offset="1" style="stop-color:#FFCE47;stop-opacity:0"/>
	</radialGradient>
	<path style="fill:url(#SVGID_00000137840370448693372720000005820782177401843842_);" d="M242.6,126.8
		c8.5-19.5,27.2-28.1,46.1-21.7c20.3,6.9,29.2,27.5,18,56.5c-6.2,16.2-13.6,38.5-13.6,38.5l-9.7,11.7c-47.5,24.2-92.2,1.8-92.2,1.8
		c12.9-9.3,25.7-23.2,30.8-32.7C230.6,165.1,235.7,142.5,242.6,126.8z"/>
	
		<radialGradient id="SVGID_00000089560866057822338770000003218303881365521342_" cx="82.0869" cy="797.6469" r="11" gradientTransform="matrix(0.3125 2.625 2.2826 -0.2717 -1554.0565 131.1237)" gradientUnits="userSpaceOnUse">
		<stop  offset="0" style="stop-color:#FFF067"/>
		<stop  offset="1" style="stop-color:#FFF067;stop-opacity:0"/>
	</radialGradient>
	<path style="fill:url(#SVGID_00000089560866057822338770000003218303881365521342_);" d="M242.6,126.8
		c8.5-19.5,27.2-28.1,46.1-21.7c20.3,6.9,29.2,27.5,18,56.5c-6.2,16.2-13.6,38.5-13.6,38.5l-9.7,11.7c-47.5,24.2-92.2,1.8-92.2,1.8
		c12.9-9.3,25.7-23.2,30.8-32.7C230.6,165.1,235.7,142.5,242.6,126.8z"/>
	
		<radialGradient id="SVGID_00000026149782056696614820000003937800879242947757_" cx="-92" cy="759.4117" r="11" gradientTransform="matrix(-7.0781 0 0 4.5553 -307.3273 -3235.3315)" gradientUnits="userSpaceOnUse">
		<stop  offset="7.064020e-02" style="stop-color:#FFEF66"/>
		<stop  offset="0.7859" style="stop-color:#FEB426"/>
		<stop  offset="1" style="stop-color:#E5A340"/>
	</radialGradient>
	<path style="fill:url(#SVGID_00000026149782056696614820000003937800879242947757_);" d="M365.5,231.8L365.5,231.8
		c0,17.7-14.3,32-32,32H298c-17.7,0-32-14.3-32-32v0c0-17.7,14.3-32,32-32h35.5C351.1,199.8,365.5,214.1,365.5,231.8z"/>
	
		<linearGradient id="SVGID_00000034800390147737510900000015082183909255540394_" gradientUnits="userSpaceOnUse" x1="394.5868" y1="996.8644" x2="381.5243" y2="996.8644" gradientTransform="matrix(6.123234e-17 1 1 -6.123234e-17 -681.1314 -138.9224)">
		<stop  offset="0" style="stop-color:#F4A009"/>
		<stop  offset="0.6842" style="stop-color:#F4A009;stop-opacity:0"/>
	</linearGradient>
	<path style="fill:url(#SVGID_00000034800390147737510900000015082183909255540394_);" d="M365.5,231.8L365.5,231.8
		c0,17.7-14.3,32-32,32H298c-17.7,0-32-14.3-32-32v0c0-17.7,14.3-32,32-32h35.5C351.1,199.8,365.5,214.1,365.5,231.8z"/>
	
		<radialGradient id="SVGID_00000135681898232425556170000011977075618498490780_" cx="-173.3644" cy="759.022" r="11" gradientTransform="matrix(-3 -2.0508 -1.1702 1.7119 645.9725 -1391.0802)" gradientUnits="userSpaceOnUse">
		<stop  offset="0.3368" style="stop-color:#D98320"/>
		<stop  offset="1" style="stop-color:#D98320;stop-opacity:0"/>
	</radialGradient>
	<path style="fill:url(#SVGID_00000135681898232425556170000011977075618498490780_);" d="M365.5,231.8L365.5,231.8
		c0,17.7-14.3,32-32,32H298c-17.7,0-32-14.3-32-32v0c0-17.7,14.3-32,32-32h35.5C351.1,199.8,365.5,214.1,365.5,231.8z"/>
	
		<radialGradient id="SVGID_00000168103037897216632170000008642873673142098064_" cx="-93.0405" cy="772.6833" r="11" gradientTransform="matrix(-6.8125 9.374703e-02 7.387070e-02 5.3681 -346.3775 -3768.3079)" gradientUnits="userSpaceOnUse">
		<stop  offset="0" style="stop-color:#FFDA53"/>
		<stop  offset="0.6834" style="stop-color:#FFAE4C"/>
		<stop  offset="1" style="stop-color:#E59228"/>
	</radialGradient>
	<path style="fill:url(#SVGID_00000168103037897216632170000008642873673142098064_);" d="M357.6,377.9L357.6,377.9
		c0,17.2-13.9,31.1-31.1,31.1h-16.8c-17.2,0-31.1-13.9-31.1-31.1l0,0c0-17.2,13.9-31.1,31.1-31.1h16.8
		C343.7,346.8,357.6,360.7,357.6,377.9z"/>
	
		<radialGradient id="SVGID_00000118369688506937288890000017529441329293074101_" cx="-0.1054" cy="432.8685" r="11" gradientTransform="matrix(5.9509 -0.7426 -0.2976 -2.3847 423.8 1449.3928)" gradientUnits="userSpaceOnUse">
		<stop  offset="0" style="stop-color:#F29545"/>
		<stop  offset="1" style="stop-color:#F29545;stop-opacity:0"/>
	</radialGradient>
	<path style="fill:url(#SVGID_00000118369688506937288890000017529441329293074101_);" d="M357.6,377.9L357.6,377.9
		c0,17.2-13.9,31.1-31.1,31.1h-16.8c-17.2,0-31.1-13.9-31.1-31.1l0,0c0-17.2,13.9-31.1,31.1-31.1h16.8
		C343.7,346.8,357.6,360.7,357.6,377.9z"/>
	
		<radialGradient id="SVGID_00000061437620544004618170000001778984798465590958_" cx="-26.9461" cy="461.1021" r="11" gradientTransform="matrix(20.375 2.5625 0.2609 -2.0748 628.5282 1368.3701)" gradientUnits="userSpaceOnUse">
		<stop  offset="0.6455" style="stop-color:#EE970B"/>
		<stop  offset="0.7004" style="stop-color:#EE970B;stop-opacity:0"/>
	</radialGradient>
	<path style="fill:url(#SVGID_00000061437620544004618170000001778984798465590958_);" d="M357.6,377.9L357.6,377.9
		c0,17.2-13.9,31.1-31.1,31.1h-16.8c-17.2,0-31.1-13.9-31.1-31.1l0,0c0-17.2,13.9-31.1,31.1-31.1h16.8
		C343.7,346.8,357.6,360.7,357.6,377.9z"/>
	
		<radialGradient id="SVGID_00000024719650209604744710000010491373646675011505_" cx="-5.2279" cy="608.7711" r="11" gradientTransform="matrix(9.9688 0 0 -7.615 391.1562 5016.9424)" gradientUnits="userSpaceOnUse">
		<stop  offset="0.3542" style="stop-color:#D17D15;stop-opacity:0"/>
		<stop  offset="0.7237" style="stop-color:#BE691D"/>
	</radialGradient>
	<path style="fill:url(#SVGID_00000024719650209604744710000010491373646675011505_);" d="M357.6,377.9L357.6,377.9
		c0,17.2-13.9,31.1-31.1,31.1h-16.8c-17.2,0-31.1-13.9-31.1-31.1l0,0c0-17.2,13.9-31.1,31.1-31.1h16.8
		C343.7,346.8,357.6,360.7,357.6,377.9z"/>
	
		<radialGradient id="SVGID_00000019659141024204990070000018308681694331081889_" cx="-76.8162" cy="913.5798" r="11" gradientTransform="matrix(-5.3125 1.1875 0.5073 2.2696 -583.4052 -1627.5947)" gradientUnits="userSpaceOnUse">
		<stop  offset="0" style="stop-color:#CF7916"/>
		<stop  offset="1" style="stop-color:#CF7916;stop-opacity:0"/>
	</radialGradient>
	<path style="fill:url(#SVGID_00000019659141024204990070000018308681694331081889_);" d="M357.6,377.9L357.6,377.9
		c0,17.2-13.9,31.1-31.1,31.1h-16.8c-17.2,0-31.1-13.9-31.1-31.1l0,0c0-17.2,13.9-31.1,31.1-31.1h16.8
		C343.7,346.8,357.6,360.7,357.6,377.9z"/>
	
		<radialGradient id="SVGID_00000020374071546364884650000012437722674372083082_" cx="103.7875" cy="490.6715" r="11" gradientTransform="matrix(3.0937 2.4062 0.7858 -1.0103 -428.1324 646.7319)" gradientUnits="userSpaceOnUse">
		<stop  offset="0" style="stop-color:#D78867"/>
		<stop  offset="1" style="stop-color:#D78867;stop-opacity:0"/>
	</radialGradient>
	<path style="fill:url(#SVGID_00000020374071546364884650000012437722674372083082_);" d="M357.6,377.9L357.6,377.9
		c0,17.2-13.9,31.1-31.1,31.1h-16.8c-17.2,0-31.1-13.9-31.1-31.1l0,0c0-17.2,13.9-31.1,31.1-31.1h16.8
		C343.7,346.8,357.6,360.7,357.6,377.9z"/>
	
		<radialGradient id="SVGID_00000173864564428386859070000013296029176691832228_" cx="-134.9227" cy="628.4772" r="11" gradientTransform="matrix(0.2813 -5.2187 -7.5953 -0.4094 5133.5972 -75.3514)" gradientUnits="userSpaceOnUse">
		<stop  offset="0.5073" style="stop-color:#DE89A6;stop-opacity:0"/>
		<stop  offset="0.6582" style="stop-color:#DA849D"/>
		<stop  offset="0.6805" style="stop-color:#E99DA8"/>
	</radialGradient>
	<path style="fill:url(#SVGID_00000173864564428386859070000013296029176691832228_);" d="M357.6,377.9L357.6,377.9
		c0,17.2-13.9,31.1-31.1,31.1h-16.8c-17.2,0-31.1-13.9-31.1-31.1l0,0c0-17.2,13.9-31.1,31.1-31.1h16.8
		C343.7,346.8,357.6,360.7,357.6,377.9z"/>
	
		<radialGradient id="SVGID_00000113339236529879859540000006554284168099928457_" cx="146.6473" cy="681.7228" r="11" gradientTransform="matrix(1.5312 2.8437 2.2408 -1.2066 -1477.4105 796.6381)" gradientUnits="userSpaceOnUse">
		<stop  offset="0" style="stop-color:#D6875C"/>
		<stop  offset="1" style="stop-color:#D6875C;stop-opacity:0"/>
	</radialGradient>
	<path style="fill:url(#SVGID_00000113339236529879859540000006554284168099928457_);" d="M357.6,377.9L357.6,377.9
		c0,17.2-13.9,31.1-31.1,31.1h-16.8c-17.2,0-31.1-13.9-31.1-31.1l0,0c0-17.2,13.9-31.1,31.1-31.1h16.8
		C343.7,346.8,357.6,360.7,357.6,377.9z"/>
	
		<radialGradient id="SVGID_00000048464552890967240910000013217030114402394792_" cx="-89.3955" cy="781.8433" r="11" gradientTransform="matrix(-7.5581 0 0 4.4637 -326.5278 -3164.0447)" gradientUnits="userSpaceOnUse">
		<stop  offset="7.064020e-02" style="stop-color:#FFEA68"/>
		<stop  offset="0.7859" style="stop-color:#FEB426"/>
		<stop  offset="1" style="stop-color:#E5A340"/>
	</radialGradient>
	<path style="fill:url(#SVGID_00000048464552890967240910000013217030114402394792_);" d="M372.2,333.4L372.2,333.4
		c0,17.3-14,31.4-31.4,31.4h-43.5c-17.3,0-31.4-14-31.4-31.4v0c0-17.3,14-31.4,31.4-31.4h43.5C358.2,302.1,372.2,316.1,372.2,333.4z
		"/>
	
		<radialGradient id="SVGID_00000038405465357308222040000016857778534735145388_" cx="-17.7839" cy="539.172" r="11" gradientTransform="matrix(12.5 -0.375 -0.1146 -3.8185 567.4164 2431.5596)" gradientUnits="userSpaceOnUse">
		<stop  offset="0" style="stop-color:#EE934A"/>
		<stop  offset="1" style="stop-color:#EE934A;stop-opacity:0"/>
	</radialGradient>
	<path style="fill:url(#SVGID_00000038405465357308222040000016857778534735145388_);" d="M372.2,333.4L372.2,333.4
		c0,17.3-14,31.4-31.4,31.4h-43.5c-17.3,0-31.4-14-31.4-31.4v0c0-17.3,14-31.4,31.4-31.4h43.5C358.2,302.1,372.2,316.1,372.2,333.4z
		"/>
	
		<radialGradient id="SVGID_00000026146527442005352400000006105730235325959603_" cx="53.4583" cy="542.4623" r="11" gradientTransform="matrix(4.4375 3.2813 1.0023 -1.3556 -521.322 911.842)" gradientUnits="userSpaceOnUse">
		<stop  offset="0" style="stop-color:#D77B5F"/>
		<stop  offset="1" style="stop-color:#DA7D63;stop-opacity:0"/>
	</radialGradient>
	<path style="fill:url(#SVGID_00000026146527442005352400000006105730235325959603_);" d="M372.2,333.4L372.2,333.4
		c0,17.3-14,31.4-31.4,31.4h-43.5c-17.3,0-31.4-14-31.4-31.4v0c0-17.3,14-31.4,31.4-31.4h43.5C358.2,302.1,372.2,316.1,372.2,333.4z
		"/>
	
		<radialGradient id="SVGID_00000183213114752126955300000002877725003444804516_" cx="-27.7895" cy="210.7576" r="11" gradientTransform="matrix(22.0156 3.123863e-02 1.374208e-03 -0.9685 877.5054 512.5539)" gradientUnits="userSpaceOnUse">
		<stop  offset="0.3924" style="stop-color:#EE970B"/>
		<stop  offset="0.858" style="stop-color:#FFB610;stop-opacity:0"/>
	</radialGradient>
	<path style="fill:url(#SVGID_00000183213114752126955300000002877725003444804516_);" d="M372.2,333.4L372.2,333.4
		c0,17.3-14,31.4-31.4,31.4h-43.5c-17.3,0-31.4-14-31.4-31.4v0c0-17.3,14-31.4,31.4-31.4h43.5C358.2,302.1,372.2,316.1,372.2,333.4z
		"/>
	
		<radialGradient id="SVGID_00000122713755861859560870000006999851154113744300_" cx="-83.9865" cy="779.3173" r="11" gradientTransform="matrix(-8.5513 0 0 4.1213 -367.0685 -2936.8992)" gradientUnits="userSpaceOnUse">
		<stop  offset="7.064020e-02" style="stop-color:#FFEF66"/>
		<stop  offset="0.7859" style="stop-color:#FEB426"/>
		<stop  offset="1" style="stop-color:#E5A340"/>
	</radialGradient>
	<path style="fill:url(#SVGID_00000122713755861859560870000006999851154113744300_);" d="M377.2,281.9L377.2,281.9
		c0,16-13,29-29,29H286c-16,0-29-13-29-29v0c0-16,13-29,29-29h62.3C364.3,252.9,377.2,265.9,377.2,281.9z"/>
	
		<radialGradient id="SVGID_00000104703507918541150750000015679320540871888783_" cx="-22.6329" cy="520.6211" r="11" gradientTransform="matrix(16.625 0 0 -2.9375 658.9375 1844.8014)" gradientUnits="userSpaceOnUse">
		<stop  offset="0" style="stop-color:#FFA84A"/>
		<stop  offset="1" style="stop-color:#F29545;stop-opacity:0"/>
	</radialGradient>
	<path style="fill:url(#SVGID_00000104703507918541150750000015679320540871888783_);" d="M377.2,281.9L377.2,281.9
		c0,16-13,29-29,29H286c-16,0-29-13-29-29v0c0-16,13-29,29-29h62.3C364.3,252.9,377.2,265.9,377.2,281.9z"/>
</g>
</svg>
