<?xml version="1.0" encoding="UTF-8"?>
<svg xmlns="http://www.w3.org/2000/svg" viewBox="0 0 1920 1080">
  <defs>
    <style>
      .cls-1 {
        fill: #1c1c1c;
      }

      .cls-2 {
        fill: #b0cb37;
      }
    </style>
  </defs>
  <g id="Layer_1" data-name="Layer 1">
    <rect class="cls-1" width="1920" height="1080"/>
  </g>
  <g id="Layer_2" data-name="Layer 2">
    <polygon class="cls-2" points="960 313.78 1072.04 115.57 1069.96 343.25 1266.1 227.61 1150.46 423.75 1378.14 421.67 1179.93 533.71 1378.14 645.75 1150.46 643.67 1266.1 839.81 1069.96 724.17 1072.04 951.85 960 753.64 847.96 951.85 850.04 724.17 653.9 839.81 769.54 643.67 541.86 645.75 740.07 533.71 541.86 421.67 769.54 423.75 653.9 227.61 850.04 343.25 847.96 115.57 960 313.78"/>
    <polygon class="cls-1" points="1091.85 540 896.2 427.04 896.2 652.96 1091.85 540"/>
  </g>
</svg>