<?xml version="1.0" encoding="UTF-8"?>
<svg id="Layer_3" data-name="Layer 3" xmlns="http://www.w3.org/2000/svg" xmlns:xlink="http://www.w3.org/1999/xlink" viewBox="0 0 149.61 60.23">
  <defs>
    <style>
      .cls-1 {
        fill: url(#radial-gradient-7);
      }

      .cls-1, .cls-2, .cls-3, .cls-4, .cls-5, .cls-6, .cls-7, .cls-8, .cls-9 {
        stroke-miterlimit: 10;
        stroke-width: .25px;
      }

      .cls-1, .cls-4, .cls-5, .cls-7 {
        stroke: #fff;
      }

      .cls-10 {
        fill: #aec8c4;
      }

      .cls-2 {
        fill: url(#radial-gradient-4);
      }

      .cls-2, .cls-3, .cls-6, .cls-9 {
        stroke: #4e6372;
      }

      .cls-3 {
        fill: url(#radial-gradient-3);
      }

      .cls-4 {
        fill: url(#radial-gradient-6);
      }

      .cls-11 {
        fill: #8c9795;
      }

      .cls-5 {
        fill: url(#radial-gradient-8);
      }

      .cls-12 {
        isolation: isolate;
      }

      .cls-6 {
        fill: url(#radial-gradient-2);
      }

      .cls-7 {
        fill: url(#radial-gradient-5);
      }

      .cls-8 {
        fill: none;
        stroke: #51736e;
      }

      .cls-9 {
        fill: url(#radial-gradient);
      }
    </style>
    <radialGradient id="radial-gradient" cx="66.47" cy="45.45" fx="66.47" fy="45.45" r="12.87" gradientTransform="translate(7.72 -13.47) rotate(9.01)" gradientUnits="userSpaceOnUse">
      <stop offset="0" stop-color="#aec8c4"/>
      <stop offset="1" stop-color="#46546d"/>
    </radialGradient>
    <radialGradient id="radial-gradient-2" cx="57.23" cy="48.69" fx="57.23" fy="48.69" r="11.72" xlink:href="#radial-gradient"/>
    <radialGradient id="radial-gradient-3" cx="44.16" cy="55.02" fx="44.16" fy="55.02" r="9.63" xlink:href="#radial-gradient"/>
    <radialGradient id="radial-gradient-4" cx="18.62" cy="46.3" fx="18.62" fy="46.3" r="18.26" gradientTransform="translate(-1.26 -3.64) rotate(-1.73)" xlink:href="#radial-gradient"/>
    <radialGradient id="radial-gradient-5" cx="67.03" cy="45.51" fx="67.03" fy="45.51" r="12.87" gradientTransform="translate(-.24 -49.05) scale(1 2)" gradientUnits="userSpaceOnUse">
      <stop offset="0" stop-color="#00001b"/>
      <stop offset="1" stop-color="#cc001b"/>
    </radialGradient>
    <radialGradient id="radial-gradient-6" cx="57.79" cy="48.75" fx="57.79" fy="48.75" r="11.72" gradientTransform="translate(-.63 -53.78) scale(1 2)" xlink:href="#radial-gradient-5"/>
    <radialGradient id="radial-gradient-7" cx="44.73" cy="55.08" fx="44.73" fy="55.08" r="9.63" gradientTransform="translate(-1.46 -62.23) scale(1 2)" xlink:href="#radial-gradient-5"/>
    <radialGradient id="radial-gradient-8" cx="19.17" cy="46.47" fx="19.17" fy="46.47" r="18.26" gradientTransform="translate(.13 -50.71) scale(1 2)" xlink:href="#radial-gradient-5"/>
  </defs>
  <g class="cls-12">
    <path class="cls-11" d="M1.44,2.67h9.58l14.4,22.01V2.67h9.02v37.09h-9.46l-14.46-22v22H1.44V2.67ZM8.24,38.03V11.88h.93l17.25,26.15h5.75V4.4h-4.45v25.84h-1.11L9.6,4.4H3.72v33.63h4.51ZM5.33,5.08h3.89l.25.31h-3.96l-.19-.31ZM6.2,6.32h3.83l.25.31h-3.89l-.19-.31ZM7,7.56h3.83l.25.31h-3.89l-.19-.31ZM7.87,8.79h3.77l.25.31h-3.83l-.19-.31ZM8.67,10.03h3.77l.25.31h-3.83l-.19-.31ZM9.54,11.27h3.71l.25.31h-3.77l-.19-.31ZM10.34,12.5h3.77l.25.31h-3.83l-.19-.31ZM11.14,13.74h3.77l.25.31h-3.83l-.19-.31ZM12.01,14.97h3.71l.25.31h-3.77l-.19-.31ZM12.81,16.21h3.71l.25.31h-3.77l-.19-.31ZM13.61,17.45h3.71l.25.31h-3.77l-.19-.31ZM14.42,18.68h3.77l.25.31h-3.83l-.19-.31ZM15.22,19.92h3.77l.25.31h-3.83l-.19-.31ZM16.03,21.16h3.77l.25.31h-3.83l-.19-.31ZM16.89,22.39h3.71l.25.31h-3.77l-.19-.31ZM17.69,23.63h3.71l.25.31h-3.77l-.19-.31ZM18.5,24.86h3.71l.25.31h-3.77l-.19-.31ZM19.3,26.1h3.77l.25.31h-3.83l-.19-.31ZM23.88,27.34l.25.31h-3.83l-.19-.31h3.77ZM24.68,28.57l.25.31h-3.77l-.19-.31h3.71ZM25.48,29.81l.25.31h-3.77l-.19-.31h3.71ZM26.41,31.05l.25.31h-3.89l-.19-.31h3.83ZM27.28,32.28l.31.31h-4.02l-.19-.31h3.89ZM28.2,33.52l.31.31h-4.14l-.19-.31h4.02ZM29.13,34.75l.25.31h-4.2l-.19-.31h4.14ZM30.06,35.99l.31.31h-4.33l-.19-.31h4.2ZM30.92,37.1l.31.31h-4.51l-.19-.31h4.39Z"/>
    <path class="cls-11" d="M40.38,2.67h24.54v8.04h-15.45v6.68h14.28v7.91h-14.28v6.68h16.13v7.79h-25.22V2.67ZM63.32,38.03v-4.33h-16.13v-10.14h14.28v-4.45h-14.28v-10.14h15.45v-4.57h-19.97v33.63h20.65ZM43.78,36.98h18.92v.31h-19.22l.31-.31ZM43.54,5.27h18.48v.31h-18.17l-.31-.31ZM44.77,6.51h17.25v.31h-16.94l-.31-.31ZM45.08,35.74h17.62v.31h-17.93l.31-.31ZM46.01,7.74h16.01v.31h-15.7l-.31-.31ZM46.38,34.51h16.32v.31h-16.69l.37-.31ZM47.18,19.92h13.66v.31h-13.66v-.31ZM47.18,21.16h13.66v.31h-13.66v-.31ZM47.18,22.39h13.66v.31h-13.66v-.31Z"/>
    <path class="cls-11" d="M74.63,33.7c-2.72-3.4-4.27-7.66-4.27-12.49,0-11.06,8.35-19.78,20.09-19.78,3.77,0,7.17.93,10.08,2.53l1.11-1.3h9.89l-5.32,6.12c2.72,3.34,4.26,7.66,4.26,12.42,0,11.06-8.34,19.78-20.03,19.78-3.77,0-7.17-.93-10.08-2.47l-1.05,1.24h-9.95l5.25-6.06ZM78.09,38.03l1.79-2.1c2.91,2.22,6.74,3.34,10.57,3.34,10.26,0,17.74-7.97,17.74-18.05,0-4.57-1.73-9.33-4.7-12.42l3.83-4.39h-4.51l-1.85,2.1c-2.47-1.98-6.55-3.34-10.51-3.34-10.32,0-17.8,7.97-17.8,18.05,0,5.13,1.92,9.33,4.7,12.49l-3.77,4.33h4.51ZM73.33,19.86h3.34l-.06.31h-3.34l.06-.31ZM73.27,21.09h3.34v.31h-3.34v-.31ZM73.27,22.33h3.34l.06.31h-3.34l-.06-.31ZM73.46,18.62h3.4l-.12.31h-3.34l.06-.31ZM73.39,23.57h3.34l.12.31h-3.4l-.06-.31ZM73.64,17.39h3.46l-.12.31h-3.4l.06-.31ZM73.58,24.8h3.4l.12.31h-3.4l-.12-.31ZM73.95,16.15h3.52l-.12.31h-3.46l.06-.31ZM74.32,14.91h3.71l-.19.31h-3.59l.06-.31ZM74.82,13.68h3.9l-.25.31h-3.77l.12-.31ZM75.25,37.1h2.72l-.19.25h-2.78l.25-.25ZM75.43,12.44h4.2l-.25.31h-4.14l.19-.31ZM76.24,35.93h2.78l-.31.31h-2.78l.31-.31ZM76.24,11.2h4.58l-.37.31h-4.45l.25-.31ZM77.1,9.97h5.19l-.43.31h-5.01l.25-.31ZM77.35,34.69h1.3l.5.31h-2.1l.31-.31ZM77.23,21.22c0-7.23,5.25-12.92,13.23-12.92,2.53,0,5.13.62,7.29,1.98l-17.25,19.78c-2.22-2.47-3.28-5.56-3.28-8.84ZM78.28,8.73h6.49l-.8.31h-6l.31-.31ZM79.7,7.5h24.11l-.31.31h-10.82l-2.23-.19-2.41.19h-8.84l.49-.31ZM94.6,10.77c-1.24-.49-2.66-.74-4.14-.74-6.61,0-10.88,4.95-10.88,11.19,0,1.98.43,3.83,1.17,5.38l13.85-15.82ZM81.49,6.26h17.8l.37.31h-18.67l.49-.31ZM83.41,30.98l-.31.31h-1.55l-.43-.31h2.29ZM81.62,29.75h2.84l-.31.31h-2.84l.31-.31ZM82.73,28.51h2.84l-.31.31h-2.84l.31-.31ZM100.35,12.44c2.16,2.29,3.28,5.56,3.28,8.78,0,7.23-5.25,12.92-13.17,12.92-2.53,0-4.88-.56-7.29-1.92l17.18-19.78ZM84.03,5.02h12.73l.8.31h-14.34l.8-.31ZM83.78,27.28h2.84l-.31.31h-2.84l.31-.31ZM84.89,26.04h2.84l-.31.31h-2.84l.31-.31ZM85.94,24.8h2.84l-.31.31h-2.84l.31-.31ZM90.45,32.41c6.55,0,10.82-4.94,10.82-11.19,0-1.92-.43-3.77-1.17-5.32l-13.72,15.82c1.24.43,2.6.68,4.08.68ZM87.06,23.57h2.84l-.31.31h-2.84l.31-.31ZM90.45,3.85l2.91.25h-6.06l3.15-.25ZM88.11,22.33h2.84l-.31.31h-2.84l.31-.31ZM89.22,21.09h2.84l-.31.31h-2.84l.31-.31ZM90.27,19.86h2.84l-.31.31h-2.84l.31-.31ZM91.38,18.62h2.78l-.25.31h-2.84l.31-.31ZM92.43,17.39h2.84l-.31.31h-2.84l.31-.31ZM93.55,16.15h2.78l-.31.31h-2.78l.31-.31ZM94.6,14.91h2.78l-.31.31h-2.78l.31-.31ZM95.65,13.68h2.78l-.31.31h-2.72l.25-.31ZM102.57,8.73l-.06-.06.37.37h-6l-.68-.31h6.37ZM96.76,12.44h2.72l-.25.31h-2.78l.31-.31ZM97.81,11.2h6.68l.25.31h-7.23l.31-.31ZM98.49,9.97h5.13l.31.31h-5.32l-.12-.31ZM105.29,12.44l.19.31h-4.02l-.31-.31h4.14ZM102.01,6.26h2.84l-.31.31h-2.84l.31-.31ZM102.08,13.68h3.83l.12.31h-3.77l-.19-.31ZM102.76,14.91h3.65l.12.31h-3.58l-.19-.31ZM103.06,5.08h2.78l-.19.25h-2.78l.19-.25ZM103.31,16.15h3.52l.12.31h-3.46l-.19-.31ZM103.68,17.39h3.46l.12.31h-3.46l-.12-.31ZM103.81,24.8h3.4l-.06.31h-3.46l.12-.31ZM103.99,18.62h3.4l.06.31h-3.4l-.06-.31ZM104.05,23.57h3.4l-.12.31h-3.34l.06-.31ZM104.18,22.33h3.34v.31h-3.4l.06-.31ZM104.18,19.86h3.34v.31h-3.34v-.31ZM104.24,21.09h3.34v.31h-3.34v-.31Z"/>
    <path class="cls-11" d="M116.61,2.67h9.58l14.4,22.01V2.67h9.03v37.09h-9.46l-14.46-22v22h-9.09V2.67ZM123.41,38.03V11.88h.93l17.25,26.15h5.75V4.4h-4.45v25.84h-1.11l-17-25.84h-5.87v33.63h4.51ZM120.5,5.08h3.89l.25.31h-3.96l-.19-.31ZM121.37,6.32h3.83l.25.31h-3.89l-.19-.31ZM122.17,7.56h3.83l.25.31h-3.89l-.19-.31ZM123.03,8.79h3.77l.25.31h-3.83l-.19-.31ZM123.84,10.03h3.77l.25.31h-3.83l-.19-.31ZM124.7,11.27h3.71l.25.31h-3.77l-.19-.31ZM125.51,12.5h3.77l.25.31h-3.83l-.19-.31ZM126.31,13.74h3.77l.25.31h-3.83l-.19-.31ZM127.18,14.97h3.71l.25.31h-3.77l-.19-.31ZM127.98,16.21h3.71l.25.31h-3.77l-.19-.31ZM128.78,17.45h3.71l.25.31h-3.77l-.19-.31ZM129.59,18.68h3.77l.25.31h-3.83l-.18-.31ZM130.39,19.92h3.77l.25.31h-3.83l-.19-.31ZM131.19,21.16h3.77l.25.31h-3.83l-.19-.31ZM132.06,22.39h3.71l.25.31h-3.77l-.19-.31ZM132.86,23.63h3.71l.25.31h-3.77l-.19-.31ZM133.67,24.86h3.71l.25.31h-3.77l-.19-.31ZM134.47,26.1h3.77l.25.31h-3.83l-.19-.31ZM139.04,27.34l.25.31h-3.83l-.19-.31h3.77ZM139.85,28.57l.25.31h-3.77l-.19-.31h3.71ZM140.65,29.81l.25.31h-3.77l-.19-.31h3.71ZM141.58,31.05l.25.31h-3.89l-.19-.31h3.83ZM142.44,32.28l.31.31h-4.02l-.19-.31h3.89ZM143.37,33.52l.31.31h-4.14l-.18-.31h4.02ZM144.3,34.75l.25.31h-4.2l-.19-.31h4.14ZM145.23,35.99l.31.31h-4.33l-.18-.31h4.2ZM146.09,37.1l.31.31h-4.51l-.19-.31h4.39Z"/>
  </g>
  <g class="cls-12">
    <path class="cls-10" d="M.12,1.36h9.58l14.4,22.01V1.36h9.02v37.09h-9.46l-14.46-22v22H.12V1.36ZM6.92,36.72V10.57h.93l17.25,26.15h5.75V3.09h-4.45v25.84h-1.11L8.28,3.09H2.41v33.63h4.51ZM4.02,3.77h3.89l.25.31h-3.96l-.19-.31ZM4.88,5.01h3.83l.25.31h-3.89l-.19-.31ZM5.69,6.24h3.83l.25.31h-3.89l-.19-.31ZM6.55,7.48h3.77l.25.31h-3.83l-.19-.31ZM7.36,8.72h3.77l.25.31h-3.83l-.19-.31ZM8.22,9.95h3.71l.25.31h-3.77l-.19-.31ZM9.03,11.19h3.77l.25.31h-3.83l-.19-.31ZM9.83,12.43h3.77l.25.31h-3.83l-.19-.31ZM10.7,13.66h3.71l.25.31h-3.77l-.19-.31ZM11.5,14.9h3.71l.25.31h-3.77l-.19-.31ZM12.3,16.13h3.71l.25.31h-3.77l-.19-.31ZM13.11,17.37h3.77l.25.31h-3.83l-.19-.31ZM13.91,18.61h3.77l.25.31h-3.83l-.19-.31ZM14.71,19.84h3.77l.25.31h-3.83l-.19-.31ZM15.58,21.08h3.71l.25.31h-3.77l-.19-.31ZM16.38,22.32h3.71l.25.31h-3.77l-.19-.31ZM17.19,23.55h3.71l.25.31h-3.77l-.19-.31ZM17.99,24.79h3.77l.25.31h-3.83l-.19-.31ZM22.56,26.02l.25.31h-3.83l-.19-.31h3.77ZM23.37,27.26l.25.31h-3.77l-.19-.31h3.71ZM24.17,28.5l.25.31h-3.77l-.19-.31h3.71ZM25.1,29.73l.25.31h-3.89l-.19-.31h3.83ZM25.96,30.97l.31.31h-4.02l-.19-.31h3.89ZM26.89,32.21l.31.31h-4.14l-.19-.31h4.02ZM27.82,33.44l.25.31h-4.2l-.19-.31h4.14ZM28.74,34.68l.31.31h-4.33l-.19-.31h4.2ZM29.61,35.79l.31.31h-4.51l-.19-.31h4.39Z"/>
    <path class="cls-10" d="M39.07,1.36h24.54v8.04h-15.45v6.68h14.28v7.91h-14.28v6.68h16.13v7.79h-25.22V1.36ZM62,36.72v-4.33h-16.13v-10.14h14.28v-4.45h-14.28V7.67h15.45V3.09h-19.97v33.63h20.65ZM42.47,35.67h18.92v.31h-19.22l.31-.31ZM42.22,3.96h18.48v.31h-18.17l-.31-.31ZM43.46,5.19h17.25v.31h-16.94l-.31-.31ZM43.77,34.43h17.62v.31h-17.93l.31-.31ZM44.7,6.43h16.01v.31h-15.7l-.31-.31ZM45.07,33.19h16.32v.31h-16.69l.37-.31ZM45.87,18.61h13.66v.31h-13.66v-.31ZM45.87,19.84h13.66v.31h-13.66v-.31ZM45.87,21.08h13.66v.31h-13.66v-.31Z"/>
    <path class="cls-10" d="M73.32,32.39c-2.72-3.4-4.27-7.66-4.27-12.49C69.05,8.84,77.4.12,89.14.12c3.77,0,7.17.93,10.08,2.53l1.11-1.3h9.89l-5.32,6.12c2.72,3.34,4.26,7.66,4.26,12.42,0,11.06-8.34,19.78-20.03,19.78-3.77,0-7.17-.93-10.08-2.47l-1.05,1.24h-9.95l5.25-6.06ZM76.78,36.72l1.79-2.1c2.91,2.22,6.74,3.34,10.57,3.34,10.26,0,17.74-7.97,17.74-18.05,0-4.57-1.73-9.33-4.7-12.42l3.83-4.39h-4.51l-1.85,2.1c-2.47-1.98-6.55-3.34-10.51-3.34-10.32,0-17.8,7.97-17.8,18.05,0,5.13,1.92,9.33,4.7,12.49l-3.77,4.33h4.51ZM72.02,18.55h3.34l-.06.31h-3.34l.06-.31ZM71.96,19.78h3.34v.31h-3.34v-.31ZM71.96,21.02h3.34l.06.31h-3.34l-.06-.31ZM72.14,17.31h3.4l-.12.31h-3.34l.06-.31ZM72.08,22.25h3.34l.12.31h-3.4l-.06-.31ZM72.33,16.07h3.46l-.12.31h-3.4l.06-.31ZM72.27,23.49h3.4l.12.31h-3.4l-.12-.31ZM72.64,14.84h3.52l-.12.31h-3.46l.06-.31ZM73.01,13.6h3.71l-.19.31h-3.59l.06-.31ZM73.5,12.36h3.9l-.25.31h-3.77l.12-.31ZM73.94,35.79h2.72l-.19.25h-2.78l.25-.25ZM74.12,11.13h4.2l-.25.31h-4.14l.19-.31ZM74.92,34.62h2.78l-.31.31h-2.78l.31-.31ZM74.92,9.89h4.58l-.37.31h-4.45l.25-.31ZM75.79,8.66h5.19l-.43.31h-5.01l.25-.31ZM76.04,33.38h1.3l.5.31h-2.1l.31-.31ZM75.91,19.91c0-7.23,5.25-12.92,13.23-12.92,2.53,0,5.13.62,7.29,1.98l-17.25,19.78c-2.22-2.47-3.28-5.56-3.28-8.84ZM76.97,7.42h6.49l-.8.31h-6l.31-.31ZM78.39,6.18h24.11l-.31.31h-10.82l-2.23-.19-2.41.19h-8.84l.49-.31ZM93.28,9.46c-1.24-.49-2.66-.74-4.14-.74-6.61,0-10.88,4.95-10.88,11.19,0,1.98.43,3.83,1.17,5.38l13.85-15.82ZM80.18,4.95h17.8l.37.31h-18.67l.49-.31ZM82.1,29.67l-.31.31h-1.55l-.43-.31h2.29ZM80.3,28.44h2.84l-.31.31h-2.84l.31-.31ZM81.42,27.2h2.84l-.31.31h-2.84l.31-.31ZM99.03,11.13c2.16,2.29,3.28,5.56,3.28,8.78,0,7.23-5.25,12.92-13.17,12.92-2.53,0-4.88-.56-7.29-1.92l17.18-19.78ZM82.71,3.71h12.73l.8.31h-14.34l.8-.31ZM82.47,25.96h2.84l-.31.31h-2.84l.31-.31ZM83.58,24.73h2.84l-.31.31h-2.84l.31-.31ZM84.63,23.49h2.84l-.31.31h-2.84l.31-.31ZM89.14,31.09c6.55,0,10.82-4.94,10.82-11.19,0-1.92-.43-3.77-1.17-5.32l-13.72,15.82c1.24.43,2.6.68,4.08.68ZM85.74,22.25h2.84l-.31.31h-2.84l.31-.31ZM89.14,2.54l2.91.25h-6.06l3.15-.25ZM86.79,21.02h2.84l-.31.31h-2.84l.31-.31ZM87.91,19.78h2.84l-.31.31h-2.84l.31-.31ZM88.96,18.55h2.84l-.31.31h-2.84l.31-.31ZM90.07,17.31h2.78l-.25.31h-2.84l.31-.31ZM91.12,16.07h2.84l-.31.31h-2.84l.31-.31ZM92.23,14.84h2.78l-.31.31h-2.78l.31-.31ZM93.28,13.6h2.78l-.31.31h-2.78l.31-.31ZM94.33,12.36h2.78l-.31.31h-2.72l.25-.31ZM101.26,7.42l-.06-.06.37.37h-6l-.68-.31h6.37ZM95.45,11.13h2.72l-.25.31h-2.78l.31-.31ZM96.5,9.89h6.68l.25.31h-7.23l.31-.31ZM97.18,8.66h5.13l.31.31h-5.32l-.12-.31ZM103.98,11.13l.19.31h-4.02l-.31-.31h4.14ZM100.7,4.95h2.84l-.31.31h-2.84l.31-.31ZM100.76,12.36h3.83l.12.31h-3.77l-.19-.31ZM101.44,13.6h3.65l.12.31h-3.58l-.19-.31ZM101.75,3.77h2.78l-.19.25h-2.78l.19-.25ZM102,14.84h3.52l.12.31h-3.46l-.19-.31ZM102.37,16.07h3.46l.12.31h-3.46l-.12-.31ZM102.49,23.49h3.4l-.06.31h-3.46l.12-.31ZM102.68,17.31h3.4l.06.31h-3.4l-.06-.31ZM102.74,22.25h3.4l-.12.31h-3.34l.06-.31ZM102.86,21.02h3.34v.31h-3.4l.06-.31ZM102.86,18.55h3.34v.31h-3.34v-.31ZM102.93,19.78h3.34v.31h-3.34v-.31Z"/>
    <path class="cls-10" d="M115.29,1.36h9.58l14.4,22.01V1.36h9.03v37.09h-9.46l-14.46-22v22h-9.09V1.36ZM122.09,36.72V10.57h.93l17.25,26.15h5.75V3.09h-4.45v25.84h-1.11L123.45,3.09h-5.87v33.63h4.51ZM119.19,3.77h3.89l.25.31h-3.96l-.19-.31ZM120.05,5.01h3.83l.25.31h-3.89l-.19-.31ZM120.86,6.24h3.83l.25.31h-3.89l-.19-.31ZM121.72,7.48h3.77l.25.31h-3.83l-.19-.31ZM122.53,8.72h3.77l.25.31h-3.83l-.19-.31ZM123.39,9.95h3.71l.25.31h-3.77l-.19-.31ZM124.19,11.19h3.77l.25.31h-3.83l-.19-.31ZM125,12.43h3.77l.25.31h-3.83l-.19-.31ZM125.86,13.66h3.71l.25.31h-3.77l-.19-.31ZM126.67,14.9h3.71l.25.31h-3.77l-.19-.31ZM127.47,16.13h3.71l.25.31h-3.77l-.19-.31ZM128.27,17.37h3.77l.25.31h-3.83l-.18-.31ZM129.08,18.61h3.77l.25.31h-3.83l-.19-.31ZM129.88,19.84h3.77l.25.31h-3.83l-.19-.31ZM130.75,21.08h3.71l.25.31h-3.77l-.19-.31ZM131.55,22.32h3.71l.25.31h-3.77l-.19-.31ZM132.35,23.55h3.71l.25.31h-3.77l-.19-.31ZM133.16,24.79h3.77l.25.31h-3.83l-.19-.31ZM137.73,26.02l.25.31h-3.83l-.19-.31h3.77ZM138.54,27.26l.25.31h-3.77l-.19-.31h3.71ZM139.34,28.5l.25.31h-3.77l-.19-.31h3.71ZM140.27,29.73l.25.31h-3.89l-.19-.31h3.83ZM141.13,30.97l.31.31h-4.02l-.19-.31h3.89ZM142.06,32.21l.31.31h-4.14l-.18-.31h4.02ZM142.99,33.44l.25.31h-4.2l-.19-.31h4.14ZM143.91,34.68l.31.31h-4.33l-.18-.31h4.2ZM144.78,35.79l.31.31h-4.51l-.19-.31h4.39Z"/>
  </g>
  <g class="cls-12">
    <path class="cls-8" d="M.12,1.36h9.58l14.4,22.01V1.36h9.02v37.09h-9.46l-14.46-22v22H.12V1.36ZM6.92,36.72V10.57h.93l17.25,26.15h5.75V3.09h-4.45v25.84h-1.11L8.28,3.09H2.41v33.63h4.51ZM4.02,3.77h3.89l.25.31h-3.96l-.19-.31ZM4.88,5.01h3.83l.25.31h-3.89l-.19-.31ZM5.69,6.24h3.83l.25.31h-3.89l-.19-.31ZM6.55,7.48h3.77l.25.31h-3.83l-.19-.31ZM7.36,8.72h3.77l.25.31h-3.83l-.19-.31ZM8.22,9.95h3.71l.25.31h-3.77l-.19-.31ZM9.03,11.19h3.77l.25.31h-3.83l-.19-.31ZM9.83,12.43h3.77l.25.31h-3.83l-.19-.31ZM10.7,13.66h3.71l.25.31h-3.77l-.19-.31ZM11.5,14.9h3.71l.25.31h-3.77l-.19-.31ZM12.3,16.13h3.71l.25.31h-3.77l-.19-.31ZM13.11,17.37h3.77l.25.31h-3.83l-.19-.31ZM13.91,18.61h3.77l.25.31h-3.83l-.19-.31ZM14.71,19.84h3.77l.25.31h-3.83l-.19-.31ZM15.58,21.08h3.71l.25.31h-3.77l-.19-.31ZM16.38,22.32h3.71l.25.31h-3.77l-.19-.31ZM17.19,23.55h3.71l.25.31h-3.77l-.19-.31ZM17.99,24.79h3.77l.25.31h-3.83l-.19-.31ZM22.56,26.02l.25.31h-3.83l-.19-.31h3.77ZM23.37,27.26l.25.31h-3.77l-.19-.31h3.71ZM24.17,28.5l.25.31h-3.77l-.19-.31h3.71ZM25.1,29.73l.25.31h-3.89l-.19-.31h3.83ZM25.96,30.97l.31.31h-4.02l-.19-.31h3.89ZM26.89,32.21l.31.31h-4.14l-.19-.31h4.02ZM27.82,33.44l.25.31h-4.2l-.19-.31h4.14ZM28.74,34.68l.31.31h-4.33l-.19-.31h4.2ZM29.61,35.79l.31.31h-4.51l-.19-.31h4.39Z"/>
    <path class="cls-8" d="M39.07,1.36h24.54v8.04h-15.45v6.68h14.28v7.91h-14.28v6.68h16.13v7.79h-25.22V1.36ZM62,36.72v-4.33h-16.13v-10.14h14.28v-4.45h-14.28V7.67h15.45V3.09h-19.97v33.63h20.65ZM42.47,35.67h18.92v.31h-19.22l.31-.31ZM42.22,3.96h18.48v.31h-18.17l-.31-.31ZM43.46,5.19h17.25v.31h-16.94l-.31-.31ZM43.77,34.43h17.62v.31h-17.93l.31-.31ZM44.7,6.43h16.01v.31h-15.7l-.31-.31ZM45.07,33.19h16.32v.31h-16.69l.37-.31ZM45.87,18.61h13.66v.31h-13.66v-.31ZM45.87,19.84h13.66v.31h-13.66v-.31ZM45.87,21.08h13.66v.31h-13.66v-.31Z"/>
    <path class="cls-8" d="M73.32,32.39c-2.72-3.4-4.27-7.66-4.27-12.49C69.05,8.84,77.4.12,89.14.12c3.77,0,7.17.93,10.08,2.53l1.11-1.3h9.89l-5.32,6.12c2.72,3.34,4.26,7.66,4.26,12.42,0,11.06-8.34,19.78-20.03,19.78-3.77,0-7.17-.93-10.08-2.47l-1.05,1.24h-9.95l5.25-6.06ZM76.78,36.72l1.79-2.1c2.91,2.22,6.74,3.34,10.57,3.34,10.26,0,17.74-7.97,17.74-18.05,0-4.57-1.73-9.33-4.7-12.42l3.83-4.39h-4.51l-1.85,2.1c-2.47-1.98-6.55-3.34-10.51-3.34-10.32,0-17.8,7.97-17.8,18.05,0,5.13,1.92,9.33,4.7,12.49l-3.77,4.33h4.51ZM72.02,18.55h3.34l-.06.31h-3.34l.06-.31ZM71.96,19.78h3.34v.31h-3.34v-.31ZM71.96,21.02h3.34l.06.31h-3.34l-.06-.31ZM72.14,17.31h3.4l-.12.31h-3.34l.06-.31ZM72.08,22.25h3.34l.12.31h-3.4l-.06-.31ZM72.33,16.07h3.46l-.12.31h-3.4l.06-.31ZM72.27,23.49h3.4l.12.31h-3.4l-.12-.31ZM72.64,14.84h3.52l-.12.31h-3.46l.06-.31ZM73.01,13.6h3.71l-.19.31h-3.59l.06-.31ZM73.5,12.36h3.9l-.25.31h-3.77l.12-.31ZM73.94,35.79h2.72l-.19.25h-2.78l.25-.25ZM74.12,11.13h4.2l-.25.31h-4.14l.19-.31ZM74.92,34.62h2.78l-.31.31h-2.78l.31-.31ZM74.92,9.89h4.58l-.37.31h-4.45l.25-.31ZM75.79,8.66h5.19l-.43.31h-5.01l.25-.31ZM76.04,33.38h1.3l.5.31h-2.1l.31-.31ZM75.91,19.91c0-7.23,5.25-12.92,13.23-12.92,2.53,0,5.13.62,7.29,1.98l-17.25,19.78c-2.22-2.47-3.28-5.56-3.28-8.84ZM76.97,7.42h6.49l-.8.31h-6l.31-.31ZM78.39,6.18h24.11l-.31.31h-10.82l-2.23-.19-2.41.19h-8.84l.49-.31ZM93.28,9.46c-1.24-.49-2.66-.74-4.14-.74-6.61,0-10.88,4.95-10.88,11.19,0,1.98.43,3.83,1.17,5.38l13.85-15.82ZM80.18,4.95h17.8l.37.31h-18.67l.49-.31ZM82.1,29.67l-.31.31h-1.55l-.43-.31h2.29ZM80.3,28.44h2.84l-.31.31h-2.84l.31-.31ZM81.42,27.2h2.84l-.31.31h-2.84l.31-.31ZM99.03,11.13c2.16,2.29,3.28,5.56,3.28,8.78,0,7.23-5.25,12.92-13.17,12.92-2.53,0-4.88-.56-7.29-1.92l17.18-19.78ZM82.71,3.71h12.73l.8.31h-14.34l.8-.31ZM82.47,25.96h2.84l-.31.31h-2.84l.31-.31ZM83.58,24.73h2.84l-.31.31h-2.84l.31-.31ZM84.63,23.49h2.84l-.31.31h-2.84l.31-.31ZM89.14,31.09c6.55,0,10.82-4.94,10.82-11.19,0-1.92-.43-3.77-1.17-5.32l-13.72,15.82c1.24.43,2.6.68,4.08.68ZM85.74,22.25h2.84l-.31.31h-2.84l.31-.31ZM89.14,2.54l2.91.25h-6.06l3.15-.25ZM86.79,21.02h2.84l-.31.31h-2.84l.31-.31ZM87.91,19.78h2.84l-.31.31h-2.84l.31-.31ZM88.96,18.55h2.84l-.31.31h-2.84l.31-.31ZM90.07,17.31h2.78l-.25.31h-2.84l.31-.31ZM91.12,16.07h2.84l-.31.31h-2.84l.31-.31ZM92.23,14.84h2.78l-.31.31h-2.78l.31-.31ZM93.28,13.6h2.78l-.31.31h-2.78l.31-.31ZM94.33,12.36h2.78l-.31.31h-2.72l.25-.31ZM101.26,7.42l-.06-.06.37.37h-6l-.68-.31h6.37ZM95.45,11.13h2.72l-.25.31h-2.78l.31-.31ZM96.5,9.89h6.68l.25.31h-7.23l.31-.31ZM97.18,8.66h5.13l.31.31h-5.32l-.12-.31ZM103.98,11.13l.19.31h-4.02l-.31-.31h4.14ZM100.7,4.95h2.84l-.31.31h-2.84l.31-.31ZM100.76,12.36h3.83l.12.31h-3.77l-.19-.31ZM101.44,13.6h3.65l.12.31h-3.58l-.19-.31ZM101.75,3.77h2.78l-.19.25h-2.78l.19-.25ZM102,14.84h3.52l.12.31h-3.46l-.19-.31ZM102.37,16.07h3.46l.12.31h-3.46l-.12-.31ZM102.49,23.49h3.4l-.06.31h-3.46l.12-.31ZM102.68,17.31h3.4l.06.31h-3.4l-.06-.31ZM102.74,22.25h3.4l-.12.31h-3.34l.06-.31ZM102.86,21.02h3.34v.31h-3.4l.06-.31ZM102.86,18.55h3.34v.31h-3.34v-.31ZM102.93,19.78h3.34v.31h-3.34v-.31Z"/>
    <path class="cls-8" d="M115.29,1.36h9.58l14.4,22.01V1.36h9.03v37.09h-9.46l-14.46-22v22h-9.09V1.36ZM122.09,36.72V10.57h.93l17.25,26.15h5.75V3.09h-4.45v25.84h-1.11L123.45,3.09h-5.87v33.63h4.51ZM119.19,3.77h3.89l.25.31h-3.96l-.19-.31ZM120.05,5.01h3.83l.25.31h-3.89l-.19-.31ZM120.86,6.24h3.83l.25.31h-3.89l-.19-.31ZM121.72,7.48h3.77l.25.31h-3.83l-.19-.31ZM122.53,8.72h3.77l.25.31h-3.83l-.19-.31ZM123.39,9.95h3.71l.25.31h-3.77l-.19-.31ZM124.19,11.19h3.77l.25.31h-3.83l-.19-.31ZM125,12.43h3.77l.25.31h-3.83l-.19-.31ZM125.86,13.66h3.71l.25.31h-3.77l-.19-.31ZM126.67,14.9h3.71l.25.31h-3.77l-.19-.31ZM127.47,16.13h3.71l.25.31h-3.77l-.19-.31ZM128.27,17.37h3.77l.25.31h-3.83l-.18-.31ZM129.08,18.61h3.77l.25.31h-3.83l-.19-.31ZM129.88,19.84h3.77l.25.31h-3.83l-.19-.31ZM130.75,21.08h3.71l.25.31h-3.77l-.19-.31ZM131.55,22.32h3.71l.25.31h-3.77l-.19-.31ZM132.35,23.55h3.71l.25.31h-3.77l-.19-.31ZM133.16,24.79h3.77l.25.31h-3.83l-.19-.31ZM137.73,26.02l.25.31h-3.83l-.19-.31h3.77ZM138.54,27.26l.25.31h-3.77l-.19-.31h3.71ZM139.34,28.5l.25.31h-3.77l-.19-.31h3.71ZM140.27,29.73l.25.31h-3.89l-.19-.31h3.83ZM141.13,30.97l.31.31h-4.02l-.19-.31h3.89ZM142.06,32.21l.31.31h-4.14l-.18-.31h4.02ZM142.99,33.44l.25.31h-4.2l-.19-.31h4.14ZM143.91,34.68l.31.31h-4.33l-.18-.31h4.2ZM144.78,35.79l.31.31h-4.51l-.19-.31h4.39Z"/>
  </g>
  <g>
    <path class="cls-9" d="M64.29,30.63s.04-1.14-1.15-1.36l-.15-.33c.71,0,1.8-.11,2.6-.45,1.23-.53,1.26-1.58,1.26-2.15l-.1-.05-.71.43-.14-.05c.56-.76.36-1.81-.17-2.51l.14-.05c.95.42,1.34,1.12,1.49,1.74.3,1.28.21,2.37.18,3.7l.09,8.87s.15,1.04,1.11,1.41c-.95.34-1.08,1.34-1.08,1.34l.05,5.22s.3,1.04,1.29,1.41c-.99.34-1.27,1.39-1.27,1.39l.04,3.84c.02,1.52,1.59,2.4,1.59,2.4l-.24.24s-.86-.28-1.6,1.06c-.28.52-.55,1.57.12,2.7l-.19.24c-.48-.37-1.1-1.27-1.64-2.26-.48-.85-1.35-2.17-2.48-1.68l-.24-.23s1.41-.92,1.4-2.43l-.04-3.84s-.3-1.04-1.25-1.36c.94-.39,1.22-1.44,1.22-1.44l-.05-5.22s-.15-1.04-1.1-1.36c.94-.39,1.08-1.39,1.08-1.39l-.08-7.82Z"/>
    <path class="cls-6" d="M59.17,30.97c-1.47.01-2.64,1.31-2.62,3.11h-.33c-.02-1.8-1.12-3.07-2.69-3.05v-.33c1.47-.02,2.64-1.31,2.62-3.11h.33c.02,1.8,1.12,3.07,2.69,3.05v.33ZM54.78,41.31s.08-1.14-1.1-1.36l-.15-.33c1.71-.11,2.73-2.26,2.72-3.54h.33c.01,1.28,1.22,3.4,3.17,3.47l-.19.33s-1.47.01-1.41,1.39l.05,5.22s.3,1.04,1.25,1.41c-.95.34-1.22,1.39-1.22,1.39l.04,3.84c.02,1.52,1.59,2.4,1.59,2.4l-.24.24s-.86-.28-1.6,1.06c-.28.52-.55,1.57.12,2.7l-.19.24c-.48-.37-1.1-1.27-1.64-2.26-.48-.85-1.35-2.17-2.48-1.68l-.24-.23s1.41-.92,1.3-2.43l-.04-3.84s-.3-1.04-1.25-1.36c.94-.39,1.22-1.44,1.22-1.44l-.05-5.22Z"/>
    <path class="cls-3" d="M45.42,44.63c-.01-1.04,1.73-2.39,2.67-3.11l-.1-.19s-1.7,1.06-2.41,1.07c-1.71.02-2.59-2.3-4.15-2.28l.14,13.75s.85-.06,1.66.41c.86.47,1.58,1.6,2.2,1.59.99-.82,2.22-1.25,2.45-1.83v-.1c-.24-.04-.52-.14-.76-.23l-.05-.14c1-.11,1.37-.73,1.6-1.63l.1.09c.39.94.16,1.75-.21,2.33-.33.52-1.97,1.63-2.26,1.87-.71.58-1.6,1.63-1.48,3.38l-.19.29c-1.91-1.45-3.98-4.18-6.3-4.16-.47,0-.85-.04-1.28.25l-.19-.23s1.46-.92,1.45-2.43l-.04-3.84s-.34-1.04-1.29-1.36c.94-.39,1.27-1.44,1.27-1.44l-.05-5.22s.04-1.14-1.15-1.36l-.15-.33c.71,0,3.04.02,4.41-.52,1.42-.54,2.54-1.69,2.53-3.06h.33c.01,1.32.26,1.99,1.69,3.11.91.7,1.96,1.12,2.86,1.11.9,0,1.51-.44,1.51-.44l.29.33s-1.89,1.06-1.87,2.96l.03,3.18c-1.89.59-4.34,1.89-6.17,3.95v-1.09c.69-.81,1.87-1.73,2.95-2.35l-.02-2.32Z"/>
    <path class="cls-2" d="M25.42,28.86c.68-.71,1.67-2.99,2.21-4.89l.18.16c.03.38.07,1.54,1.2,2.37.4.31,2.77,1.77,4.33,1.31,2.51-.75,3.11-2.36,3.26-2.78l.34.47c-.26.63-2.18,3.1-2.68,5.23-.28,1.02-.12,2.78.94,3.01l-.12.12c-1.18-.1-2.4-1.6-1.8-3.94-.6.41-1.23.63-2,.64-.18,2.26-1.98,21.24-2.12,22.72,1.43,1.6,2.96,1.73,2.96,1.73l-.19.28s-.89-.11-1.38,1.34c-.18.57-.44,1.68.44,2.67l-.14.27c-.54-.28-1.32-1.04-2.03-1.91-.63-.75-1.78-1.87-2.8-1.18l-.28-.19s.65-.86-.38-2.39l-5-8.29s-.69-.78-1.66-.59c.65-.86.23-1.74.23-1.74l-2.6-4.27c-2.01-3.03-5.26-2.82-8.28-2.21-4.14.83-7.93,4.59-6.84,10.27,1.06,5.54,6.58,6.28,9.04,5.78,2-.4,6.44-2.4,5.45-7.33-1.1-5.49-5.99-4.07-6.11-3.95.18.16.6.8.73,1.26l-.04.06c-1.21-.73-2.93-.14-3.37.09l-.06-.04c1.08-1.86,2.76-2.15,3.09-2.21.37-.07,5.36-1.02,6.48,4.6,1.05,5.25-3.47,7.8-5.98,8.31-2.7.54-8.78-.13-10.06-6.5-1.33-6.65,3.01-11.05,7.25-12.34,2.87-.86,4.8-.91,6.31-.83.98.05.62-.75.42-1.05-.79-1.05-1.94-.73-2.03-.71l-.11-.07c.53-1.94.33-4.13.18-4.87l.33-.31,9.65,15.58s.66.88,1.67.63c-.6.84-.23,1.74-.23,1.74l4.26,7.03,2.18-21.48c-1.79-.22-3.53-1.18-4.24-1.62-.06-.04-.16-.07-.32.11l-.31-.08Z"/>
  </g>
  <g>
    <path class="cls-7" d="M64.84,30.78s.04-1.14-1.15-1.36l-.15-.33c.71,0,1.8-.11,2.6-.45,1.23-.53,1.26-1.58,1.26-2.15l-.1-.05-.71.43-.14-.05c.56-.76.36-1.81-.17-2.51l.14-.05c.95.42,1.34,1.12,1.49,1.74.3,1.28.21,2.37.18,3.7l.09,8.87s.15,1.04,1.11,1.41c-.95.34-1.08,1.34-1.08,1.34l.05,5.22s.3,1.04,1.29,1.41c-.99.34-1.27,1.39-1.27,1.39l.04,3.84c.02,1.52,1.59,2.4,1.59,2.4l-.24.24s-.86-.28-1.6,1.06c-.28.52-.55,1.57.12,2.7l-.19.24c-.48-.37-1.1-1.27-1.64-2.26-.48-.85-1.35-2.17-2.48-1.68l-.24-.23s1.41-.92,1.4-2.43l-.04-3.84s-.3-1.04-1.25-1.36c.94-.39,1.22-1.44,1.22-1.44l-.05-5.22s-.15-1.04-1.1-1.36c.94-.39,1.08-1.39,1.08-1.39l-.08-7.82Z"/>
    <path class="cls-4" d="M59.72,31.12c-1.47.01-2.64,1.31-2.62,3.11h-.33c-.02-1.8-1.12-3.07-2.69-3.05v-.33c1.47-.02,2.64-1.31,2.62-3.11h.33c.02,1.8,1.12,3.07,2.69,3.05v.33ZM55.32,41.45s.08-1.14-1.1-1.36l-.15-.33c1.71-.11,2.73-2.26,2.72-3.54h.33c.01,1.28,1.22,3.4,3.17,3.47l-.19.33s-1.47.01-1.41,1.39l.05,5.22s.3,1.04,1.25,1.41c-.95.34-1.22,1.39-1.22,1.39l.04,3.84c.02,1.52,1.59,2.4,1.59,2.4l-.24.24s-.86-.28-1.6,1.06c-.28.52-.55,1.57.12,2.7l-.19.24c-.48-.37-1.1-1.27-1.64-2.26-.48-.85-1.35-2.17-2.48-1.68l-.24-.23s1.41-.92,1.3-2.43l-.04-3.84s-.3-1.04-1.25-1.36c.94-.39,1.22-1.44,1.22-1.44l-.05-5.22Z"/>
    <path class="cls-1" d="M45.97,44.77c-.01-1.04,1.73-2.39,2.67-3.11l-.1-.19s-1.7,1.06-2.41,1.07c-1.71.02-2.59-2.3-4.15-2.28l.14,13.75s.85-.06,1.66.41c.86.47,1.58,1.6,2.2,1.59.99-.82,2.22-1.25,2.45-1.83v-.1c-.24-.04-.52-.14-.76-.23l-.05-.14c1-.11,1.37-.73,1.6-1.63l.1.09c.39.94.16,1.75-.21,2.33-.33.52-1.97,1.63-2.26,1.87-.71.58-1.6,1.63-1.48,3.38l-.19.29c-1.91-1.45-3.98-4.18-6.3-4.16-.47,0-.85-.04-1.28.25l-.19-.23s1.46-.92,1.45-2.43l-.04-3.84s-.34-1.04-1.29-1.36c.94-.39,1.27-1.44,1.27-1.44l-.05-5.22s.04-1.14-1.15-1.36l-.15-.33c.71,0,3.04.02,4.41-.52,1.42-.54,2.54-1.69,2.53-3.06h.33c.01,1.32.26,1.99,1.69,3.11.91.7,1.96,1.12,2.86,1.11.9,0,1.51-.44,1.51-.44l.29.33s-1.89,1.06-1.87,2.96l.03,3.18c-1.89.59-4.34,1.89-6.17,3.95v-1.09c.69-.81,1.87-1.73,2.95-2.35l-.02-2.32Z"/>
    <path class="cls-5" d="M25.97,29.01c.68-.71,1.67-2.99,2.21-4.89l.18.16c.03.38.07,1.54,1.2,2.37.4.31,2.77,1.77,4.33,1.31,2.51-.75,3.11-2.36,3.26-2.78l.34.47c-.26.63-2.18,3.1-2.68,5.23-.28,1.02-.12,2.78.94,3.01l-.12.12c-1.18-.1-2.4-1.6-1.8-3.94-.6.41-1.23.63-2,.64-.18,2.26-1.98,21.24-2.12,22.72,1.43,1.6,2.96,1.73,2.96,1.73l-.19.28s-.89-.11-1.38,1.34c-.18.57-.44,1.68.44,2.67l-.14.27c-.54-.28-1.32-1.04-2.03-1.91-.63-.75-1.78-1.87-2.8-1.18l-.28-.19s.65-.86-.38-2.39l-5-8.29s-.69-.78-1.66-.59c.65-.86.23-1.74.23-1.74l-2.6-4.27c-2.01-3.03-5.26-2.82-8.28-2.21-4.14.83-7.93,4.59-6.84,10.27,1.06,5.54,6.58,6.28,9.04,5.78,2-.4,6.44-2.4,5.45-7.33-1.1-5.49-5.99-4.07-6.11-3.95.18.16.6.8.73,1.26l-.04.06c-1.21-.73-2.93-.14-3.37.09l-.06-.04c1.08-1.86,2.76-2.15,3.09-2.21.37-.07,5.36-1.02,6.48,4.6,1.05,5.25-3.47,7.8-5.98,8.31-2.7.54-8.78-.13-10.06-6.5-1.33-6.65,3.01-11.05,7.25-12.34,2.87-.86,4.8-.91,6.31-.83.98.05.62-.75.42-1.05-.79-1.05-1.94-.73-2.03-.71l-.11-.07c.53-1.94.33-4.13.18-4.87l.33-.31,9.65,15.58s.66.88,1.67.63c-.6.84-.23,1.74-.23,1.74l4.26,7.03,2.18-21.48c-1.79-.22-3.53-1.18-4.24-1.62-.06-.04-.16-.07-.32.11l-.31-.08Z"/>
  </g>
</svg>