<?xml version="1.0" encoding="UTF-8"?>
<svg id="blue" xmlns="http://www.w3.org/2000/svg" xmlns:xlink="http://www.w3.org/1999/xlink" viewBox="0 0 331.16 279.03">
  <defs>
    <style>
      .cls-1, .cls-2 {
        fill: #586ca7;
      }

      .cls-3 {
        fill: url(#linear-gradient-2);
      }

      .cls-4 {
        fill: url(#linear-gradient-4);
      }

      .cls-5 {
        fill: url(#linear-gradient-3);
      }

      .cls-6 {
        fill: url(#linear-gradient-5);
      }

      .cls-7 {
        fill: #8f9dc4;
      }

      .cls-2 {
        opacity: .75;
      }

      .cls-8 {
        fill: none;
        stroke: #263a84;
        stroke-miterlimit: 10;
        stroke-width: 3px;
      }

      .cls-9 {
        fill: url(#linear-gradient);
      }

      .cls-10 {
        fill: #263a84;
      }
    </style>
    <linearGradient id="linear-gradient" x1="168.47" y1="133.43" x2="202.9" y2="133.43" gradientUnits="userSpaceOnUse">
      <stop offset="0" stop-color="#fff"/>
      <stop offset=".09" stop-color="#e0e3ed"/>
      <stop offset=".27" stop-color="#a8b0cd"/>
      <stop offset=".44" stop-color="#7985b3"/>
      <stop offset=".6" stop-color="#55649e"/>
      <stop offset=".76" stop-color="#3b4d90"/>
      <stop offset=".89" stop-color="#2b3e87"/>
      <stop offset="1" stop-color="#263a84"/>
    </linearGradient>
    <linearGradient id="linear-gradient-2" x1="148.78" y1="133.26" x2="114.36" y2="133.26" xlink:href="#linear-gradient"/>
    <linearGradient id="linear-gradient-3" x1="158.63" y1="138.71" x2="158.63" y2="103.56" xlink:href="#linear-gradient"/>
    <linearGradient id="linear-gradient-4" x1="54.39" y1="243.43" x2="54.39" y2="215.12" gradientUnits="userSpaceOnUse">
      <stop offset="0" stop-color="#263a84"/>
      <stop offset=".1" stop-color="#2e4188"/>
      <stop offset=".25" stop-color="#455695"/>
      <stop offset=".44" stop-color="#6b78ab"/>
      <stop offset=".66" stop-color="#9fa8c9"/>
      <stop offset=".9" stop-color="#e2e4ee"/>
      <stop offset="1" stop-color="#fff"/>
    </linearGradient>
    <linearGradient id="linear-gradient-5" x1="276.1" y1="243.43" x2="276.1" y2="215.12" xlink:href="#linear-gradient-4"/>
  </defs>
  <g>
    <g>
      <g>
        <path class="cls-8" d="M230.27,159.1c33.72,4.98,54.85,13.39,54.85,22.97,0,15.3-56.63,27.71-126.49,27.71s-126.49-12.41-126.49-27.71c0-9.37,21.22-17.65,53.72-22.67"/>
        <path class="cls-8" d="M215.48,171.46c20.25,2.27,23.89,7.72,23.89,11.89,0,6.91-36.15,12.51-80.74,12.51s-80.74-5.6-80.74-12.51c0-4,6.92-7.5,25.76-9.79"/>
      </g>
      <path class="cls-8" d="M243.3,88.77c.09.69.07,1.76.15,2.4l-.26,7.21c.74-6.58.06-13.15-1.66-19.68-.18-.67-.63-1.21-1.23-1.42-21.02-7.73-51.4-10.96-88.18-9.9-32.08.92-58.78,3.66-78.19,11.07-.59.23-1.03.76-1.2,1.43-1.7,6.96-9.24,43.31,9.37,72.85,14.55,23.09,35.24,26.4,39.85,26.97.12.01.21.02.33,0,10.54-.79,67.25-23.86,77.71-24.09,14.32-.31-18.69,22.63-5.13,22.92,5.52-.49,21.28-3.19,34.56-19.95,3.07-3.88,5.66-8.29,7.83-13.02.95-2.06,3.73-1.17,3.53,1.14h0c-.08.98.46,1.87,1.28,2.21,12.89,5.22,34.05-9.1,34.04-31.2,0-14.6-9.86-32.88-30.27-29.05"/>
      <path class="cls-8" d="M226.69,84.85c-14.13,3.56-39.39,8.67-71.97,8.63-32.09-.05-56.99-5.08-71.05-8.63"/>
    </g>
    <g>
      <path class="cls-9" d="M187.59,120.6c-5.86.29-11.7-.67-17.14-2.72-.64-.24-1.35-.26-1.97.02,0,0,0,0,0,0,3.5,5.23,5.82,11.18,6.66,17.43.22,1.64.33,3.15.23,4.32-.04.55.11,1.09.47,1.51,1.51,1.76,3.16,3.41,4.97,4.9,2.56,2.12,4.95,3.6,6.02,2.92,1.07-.68.68-3.44-.22-6.61-1.32-4.64-3.47-8.99-6.29-12.87-1.05-1.45.21-3.47,2-3.2,4.79.73,9.7.66,14.5-.26,3.28-.63,5.95-1.53,6.09-2.78.14-1.25-2.28-2.68-5.36-3.98-1.18-.5-2.39-.93-3.62-1.32.1.26.15.51.1.73-.31,1.22-3.09,1.73-6.43,1.9Z"/>
      <path class="cls-3" d="M120.45,125.9c4.8.92,9.71.99,14.5.26,1.79-.27,3.05,1.74,2,3.2-2.82,3.88-4.97,8.24-6.29,12.87-.91,3.17-1.3,5.93-.22,6.61,1.07.68,3.46-.8,6.02-2.92,1.8-1.49,3.45-3.14,4.96-4.9.36-.42.52-.97.47-1.51-.09-1.17.01-2.68.23-4.31.84-6.25,3.16-12.2,6.66-17.43-.07-.03-.14-.06-.21-.09-.5-.21-1.06-.2-1.56-.01-5.5,2.1-11.41,3.09-17.35,2.8-3.34-.16-6.11-.68-6.43-1.9-.06-.23,0-.48.1-.73-1.22.39-2.43.82-3.62,1.32-3.08,1.3-5.49,2.73-5.36,3.98.14,1.25,2.8,2.15,6.09,2.78Z"/>
      <path class="cls-5" d="M133.89,116.88c4.88.34,9.76-.17,14.42-1.47,1.74-.49,3.24,1.37,2.38,2.94-2.32,4.19-3.92,8.77-4.66,13.53-.51,3.26-.56,6.04.59,6.59,1.15.55,3.34-1.21,5.62-3.62.02-.02.04-.04.05-.06,2.78-2.95,4.25-6.86,4.25-10.88,0-.13,0-.26,0-.38l.02-1.22c.03-2.6,3.99-2.71,4.11-.11.02.49.04.98.04,1.48,0,.13,0,.26,0,.38,0,4.02,1.48,7.94,4.25,10.88.02.02.04.04.05.06,2.28,2.41,4.47,4.17,5.62,3.62,1.15-.55,1.1-3.33.59-6.59-.75-4.76-2.34-9.34-4.66-13.53-.87-1.57.63-3.42,2.38-2.94,4.66,1.3,9.55,1.81,14.42,1.47,3.34-.24,6.1-.81,6.39-2.03.29-1.23-1.94-2.94-4.83-4.59-1.11-.64-2.26-1.21-3.43-1.74.07.27.09.52,0,.74-.46,1.17-3.28,1.35-6.61,1.12-4.79-.34-9.45-1.51-13.81-3.39-.47-.2-.84-.57-1.05-1.03l-1.09-2.34c-.13-.27-.51-.27-.64-.01l-1.51,2.96c-4.53,2.04-9.4,3.31-14.41,3.66-3.34.23-6.15.06-6.61-1.12-.09-.22-.06-.47,0-.74-1.16.53-2.31,1.1-3.43,1.74-2.89,1.66-5.12,3.36-4.83,4.59.29,1.23,3.05,1.8,6.39,2.03Z"/>
    </g>
  </g>
  <g>
    <path class="cls-7" d="M43.37,54.76c2.89-.68,5.93,7.22,6.08,8.73.39,3.78-1.35,7.35-2.19,10.96,6.91-4.63,16.97-7.18,25.54-3.53-11.03,13.02-40.21,16.77-36.49-5.2.29-1.69,5.27-10.54,7.05-10.96Z"/>
    <path class="cls-7" d="M285.15,54.72c6.32,5.26,9.62,12.94,6.74,20.01-5.38,13.22-28.01,4.57-34.4-3.67,8.79-3.55,17.99-1.17,24.87,3.86-2.22-6.88-3.79-14.46,2.79-20.2Z"/>
    <path class="cls-7" d="M311.4,73.59c6.32,6.7,6.67,17.67-.83,24-11.74,9.91-32.27-1.88-37.05-11.11,10.74-2.08,21.01,2.12,27.92,7.74-1.1-7.68.41-16.02,9.95-20.63Z"/>
    <path class="cls-1" d="M329.1,126.45c.54,0,1.61-.15,1.94.2,1.77,10.69-15.14,28.2-31.24,20.43-7.63-3.68-11.47-13.97-10.51-20.23,10.38,1.27,17.61,8.75,18.8,15.87,1.21-5.66,12.79-16.29,21.01-16.27Z"/>
    <path class="cls-1" d="M323.57,97.79c.57-.08,2.11-.1,2.49.2,1.78,7.81.46,17.07-8.57,22.42-15.27,9.03-30.27-5.9-32.9-16.07,10.59-.65,20.73,5.54,24.05,12.5.12-5.31,6.57-17.95,14.93-19.04Z"/>
    <path class="cls-7" d="M18.89,73.98c10.03,3.86,11.5,12.91,10.51,20.23,5.77-5.84,18.1-10.19,27.92-7.34-6.02,9.03-27.93,21.75-38.71,9.52-5.72-6.5-4.87-15.83.28-22.42Z"/>
    <path class="cls-1" d="M.08,123.18c11.23,1.49,19.05,8.35,22.12,15.87,2.5-7.22,8.14-14.38,19.35-15.47,1.95,12.03-11.78,29.13-30.41,19.04-7.34-3.97-11.83-13.03-11.06-19.44Z"/>
    <path class="cls-10" d="M42.66,143.02c4.15-.1,2.83,11.73,1.94,14.08-7.73,20.43-39.28,7.21-42.02-7.93,11.27-1.14,21.98,5.29,26.82,12.1.83-4.15,1.16-8.34,4.15-12.1,1.09-1.37,7.21-6.1,9.12-6.15Z"/>
    <path class="cls-4" d="M62.04,215.26c2.69-1.53,7.33,9.4,7.84,11.79,4.41,20.77-22.58,20.02-31.44,7.57,6.91-4.93,16.97-2.96,23.34,1.39-1.39-3.96-3.12-7.79-2.9-12.15.08-1.59,1.92-7.91,3.16-8.61Z"/>
    <path class="cls-6" d="M268.46,215.26c-2.69-1.53-7.33,9.4-7.84,11.79-4.41,20.77,22.58,20.02,31.44,7.57-6.91-4.93-16.97-2.96-23.34,1.39,1.39-3.96,3.12-7.79,2.9-12.15-.08-1.59-1.92-7.91-3.16-8.61Z"/>
    <path class="cls-1" d="M5.06,97.79c10.98,2.49,16.39,10.9,16.59,18.65,4.66-7.15,12.47-11.91,23.78-12.3.35,4.77-5.63,12.01-10.51,15.08C14.54,132.02-.38,110.85,5.06,97.79Z"/>
    <path class="cls-10" d="M287.07,146.75c9.99,3.16,14.17,10.77,13.82,18.25,5.04-7.38,15.6-12.99,27.37-12.1-2.36,5.39-6.5,11.47-12.99,14.88-22.46,11.78-34.74-7.36-28.2-21.03Z"/>
    <path class="cls-1" d="M71.87,48.82c.51.04.62.15.93.44-.96,6.04-7.9,15.07-16.54,14.04-2.29-5.42,4.36-11.42,10.41-13.3.61-.19,4.93-1.2,5.2-1.18Z"/>
    <path class="cls-2" d="M289.59,215.12c.51.04.62.15.93.44-.96,6.04-7.9,15.07-16.54,14.04-2.29-5.42,4.36-11.42,10.41-13.3.61-.19,4.93-1.2,5.2-1.18Z"/>
    <path class="cls-1" d="M257.56,49.54c4.77.62,10.47,2.52,13.67,5.24,4.58,3.89,7.3,12.02-3.76,7.78-5.02-1.92-10.71-8.84-9.9-13.02Z"/>
    <path class="cls-2" d="M38.51,215.29c4.77.62,10.47,2.52,13.67,5.24,4.58,3.89,7.3,12.02-3.76,7.78-5.02-1.92-10.71-8.84-9.9-13.02Z"/>
  </g>
  <g>
    <path class="cls-10" d="M81.44,58.17c1.91-.14,3.11-2.08,3.88-4.73l4.91-16.13c.78-2.61.6-3.95-1.09-4.13-.21-.04-.14-.35.07-.32,1.16.07,2.68.07,3.46.07l3.56-.07c.18,0,.32.11.32.21l2.12,18.11h.07l11.22-18.11c.07-.11.21-.21.32-.21l.99.04c1.98.07,4.45,0,6.18-.04.25-.04.21.28,0,.32-2.26.11-2.65,1.52-3.32,4.16l-4.24,17.36c-.53,2.26-.64,3.35,1.31,3.46.21,0,.18.32-.04.32-1.34-.07-2.79-.11-4.66-.11-2.15,0-4.2,0-5.89.11-.25,0-.21-.28,0-.32,2.93-.28,3.56-1.2,4.06-3.46l4.8-19.52h-.07l-14.82,23.19c-.11.18-.32.21-.39,0l-2.93-23.19h-.04l-5.36,18.28c-.74,2.61-.21,4.41,1.48,4.66.25.03.21.35,0,.32-1.84-.07-4.38-.04-5.93.04-.21,0-.18-.28.04-.32Z"/>
    <path class="cls-10" d="M113.66,53.94c0-5.15,5.65-12.03,10.69-12.03,1.84,0,3.07,1.38,2.68,4.31l1.27-3.6c0-.11.14-.18.28-.18,1.24.14,2.68.14,3.92,0,.18,0,.32.11.25.28l-3.46,9.85c-1.41,4.13-.99,5.08-.07,5.08,1.13,0,2.4-1.83,3.11-4.69.07-.25.42-.21.35.11-.53,2.58-2.01,5.93-5.26,5.93-2.54,0-3.78-2.05-2.33-7.23h-.11c-1.94,4.34-4.48,7.23-7.27,7.23-2.36,0-4.06-2.05-4.06-5.05ZM125.77,49.49l.32-.85c1.31-3.35.74-6-1.02-6-3.18,0-6.21,8.08-6.74,12.18-.28,2.12.14,2.93.99,2.93,1.98,0,4.69-3.92,6.46-8.26Z"/>
    <path class="cls-10" d="M133.25,58.31l4.8-14.4c.14-.49.04-.81-.39-.81-.88,0-2.51,1.48-3.39,4.16-.04.25-.39.14-.32-.11.95-2.93,2.75-5.05,5.54-5.05,2.12,0,3,1.13,2.36,3.11l-1.8,5.44h.07c2.26-5.61,4.16-8.75,6.39-8.75,1.41,0,2.54,1.24,2.54,3.07,0,1.62-.81,2.51-1.8,2.51-1.24,0-2.15-1.16-1.62-4.31-1.69,0-4.69,5.29-6.25,10.06l-1.62,5.08c-.07.14-.21.21-.35.21-1.52-.14-2.47-.21-3.88,0-.21.04-.32-.07-.28-.21Z"/>
    <path class="cls-10" d="M149.56,54.36c.57-2.26,2.29-5.93,4.06-9.78.39-.85.14-1.38-.49-1.38-.95,0-2.58,1.45-3.42,4.06-.07.25-.42.14-.35-.11.95-2.89,2.89-5.05,5.79-5.05,2.68,0,3.46,2.05,2.22,4.27-1.27,2.44-2.72,5.82-3.6,8.82-.64,1.91-.18,2.43.53,2.43,1.06,0,2.36-1.8,3.11-4.69.07-.25.42-.21.35.11-.6,2.58-2.08,5.96-5.47,5.96-2.44,0-3.35-1.84-2.72-4.66ZM155.45,36.01c0-1.69,1.16-2.89,2.75-2.89s2.82,1.2,2.82,2.89-1.2,2.79-2.82,2.79-2.75-1.16-2.75-2.79Z"/>
    <path class="cls-10" d="M158.84,53.94c0-5.15,5.65-12.03,10.69-12.03,1.83,0,3.07,1.38,2.68,4.31l1.27-3.6c0-.11.14-.18.28-.18,1.23.14,2.68.14,3.92,0,.18,0,.32.11.25.28l-3.46,9.85c-1.41,4.13-.99,5.08-.07,5.08,1.13,0,2.4-1.83,3.11-4.69.07-.25.42-.21.35.11-.53,2.58-2.01,5.93-5.26,5.93-2.54,0-3.78-2.05-2.33-7.23h-.11c-1.94,4.34-4.48,7.23-7.27,7.23-2.37,0-4.06-2.05-4.06-5.05ZM170.94,49.49l.32-.85c1.31-3.35.74-6-1.02-6-3.18,0-6.21,8.08-6.74,12.18-.28,2.12.14,2.93.99,2.93,1.98,0,4.69-3.92,6.46-8.26Z"/>
    <path class="cls-10" d="M188.77,55.67c0-2.79,2.22-7.52,5.01-11.86.32-.46.03-.81-.53-.81-2.29,0-6.78,4.31-8.68,10.23l-1.62,5.08c-.07.14-.21.21-.35.21-1.52-.14-2.47-.21-3.88,0-.21.04-.32-.07-.28-.21l4.8-14.4c.18-.49.04-.81-.39-.81-.88,0-2.51,1.48-3.39,4.16-.03.25-.39.14-.32-.11.95-2.93,2.75-5.05,5.61-5.05,2.05,0,2.96,1.16,2.33,3.11l-1.8,5.44h.07c2.33-4.91,5.75-8.75,9.56-8.75,2.65,0,3.92,1.76,2.43,3.88-2.26,3.56-4.34,8.01-4.34,10.52,0,.81.25,1.34.85,1.34,1.02,0,2.33-1.76,3.03-4.69.07-.25.42-.21.35.14-.57,2.58-2.05,5.93-5.33,5.93-1.98,0-3.14-1.41-3.14-3.35Z"/>
    <path class="cls-10" d="M208.5,55.67c0-2.79,2.22-7.52,5.01-11.86.32-.46.03-.81-.53-.81-2.29,0-6.78,4.31-8.68,10.23l-1.62,5.08c-.07.14-.21.21-.35.21-1.52-.14-2.47-.21-3.88,0-.21.04-.32-.07-.28-.21l4.8-14.4c.18-.49.03-.81-.39-.81-.88,0-2.51,1.48-3.39,4.16-.03.25-.39.14-.32-.11.95-2.93,2.75-5.05,5.61-5.05,2.05,0,2.96,1.16,2.33,3.11l-1.8,5.44h.07c2.33-4.91,5.75-8.75,9.56-8.75,2.65,0,3.92,1.76,2.43,3.88-2.26,3.56-4.34,8.01-4.34,10.52,0,.81.25,1.34.85,1.34,1.02,0,2.33-1.76,3.03-4.69.07-.25.42-.21.35.14-.57,2.58-2.05,5.93-5.33,5.93-1.98,0-3.14-1.41-3.14-3.35Z"/>
    <path class="cls-10" d="M218.17,53.16c0-4.98,5.05-11.26,10.76-11.26,2.47,0,3.92.95,3.92,2.61,0,2.58-3.71,5.12-9.63,6.42-.21,1.02-.32,2.01-.35,2.93-.11,2.58.49,4.16,2.33,4.16,2.05,0,3.95-1.91,5.22-5.05.11-.25.46-.18.35.14-1.13,3.11-3.14,5.86-7.09,5.86-3.35,0-5.51-2.33-5.51-5.82ZM223.25,50.62c3.71-.99,5.75-3.18,5.75-6.35,0-1.02-.35-1.91-1.13-1.91-1.76,0-3.78,4.16-4.62,8.26Z"/>
    <path class="cls-10" d="M241.04,35.34c0,2.93-2.29,5.68-5.86,6.67-.25.07-.28-.21-.11-.25,3-.95,4.23-3.04,4.45-4.55-2.08.32-3.35-.85-3.35-2.36s1.02-2.44,2.33-2.47c1.52-.04,2.54,1.16,2.54,2.96Z"/>
    <path class="cls-10" d="M235.29,54.4c0-1.34.85-2.29,1.91-2.29,1.8,0,2.68,2.19.81,4.52.42.99,1.69,1.98,3.49,1.98,2.19,0,3.6-1.34,3.6-3.14,0-3.53-5.68-3.95-5.68-8.43,0-2.96,2.4-5.15,6-5.15,2.75.04,4.48,1.48,4.48,3.39,0,1.24-.78,1.87-1.66,1.87-1.23,0-2.15-1.16-1.69-4.55-.28-.21-.67-.35-1.2-.35-1.52,0-2.61,1.13-2.61,2.75,0,3.6,6,3.35,6,8.08,0,3.46-3.21,5.89-7.34,5.89-3.42,0-6.11-2.01-6.11-4.55Z"/>
  </g>
  <g>
    <path class="cls-10" d="M80.53,235.08c0-.66,5.87-3.67,5.87-10.94,0-3.01-1.84-4.73-4.92-4.73h-1.5c-.59,0-.84.4-.84,1.03v24.01c0,.62-.26,1.03-.84,1.03h-1.14c-.62,0-.95-.4-.95-1.03v-25.47c0-.62.26-1.03.84-1.03h5.69c4.55,0,6.9,2.2,6.9,6.28,0,6.2-7.63,11.34-8.59,11.34-.29,0-.51-.18-.51-.48Z"/>
    <path class="cls-10" d="M106.26,244.15c.15.22.33.62.33.81,0,.29-.18.51-.59.51h-1.61c-.62,0-.92-.26-1.25-.84l-5.47-8.88c-.07-.15-.15-.29-.15-.48,0-.81,5.91-4.22,5.91-11.49,0-3.01-1.76-4.37-4.85-4.37h-1.5c-.59,0-.84.4-.84,1.03v24.01c0,.62-.26,1.03-.84,1.03h-1.14c-.62,0-.95-.4-.95-1.03v-25.47c0-.62.26-1.03.84-1.03h5.69c4.55,0,6.83,1.84,6.83,5.91,0,4.55-3.89,8.44-6.46,10.35l6.06,9.95Z"/>
    <path class="cls-10" d="M114.38,235.34v7.56c0,.62.33,1.1.95,1.1h5.14c.62,0,1.03.07,1.03.7s-.4.77-1.03.77h-8.08c-.62,0-.95-.4-.95-1.03v-25.47c0-.62.26-1.03.84-1.03h7.45c.62,0,1.03.15,1.03.77s-.4.7-1.03.7h-4.51c-.59,0-.84.4-.84,1.03v13.43h4.26c.62,0,1.03.11,1.03.73s-.4.73-1.03.73h-4.26Z"/>
    <path class="cls-10" d="M126.82,245.47c-.26,0-.37-.15-.37-.44l.04-26.06c.07-.62.33-1.03.95-1.03h1.28c.59,0,.7.4.88,1.03l7.08,21.99,7.23-21.99c.22-.62.48-1.03.95-1.03h.55c.59,0,.88.37.88,1.03v25.47c0,.62-.26,1.03-.84,1.03h-1.14c-.62,0-.95-.4-.95-1.03v-18.46l-6.31,18.46c-.18.62-.33,1.03-.92,1.03h-.95c-.62,0-.81-.48-.95-1.03l-6.24-18.46v19.05c0,.29-.11.44-.37.44h-.81Z"/>
    <path class="cls-10" d="M155.12,244.44c0,.62-.26,1.03-.84,1.03h-1.14c-.62,0-.95-.4-.95-1.03v-25.47c0-.62.33-1.03.95-1.03h1.14c.59,0,.84.4.84,1.03v25.47Z"/>
    <path class="cls-10" d="M172.81,218.97c0-.62.11-1.03.73-1.03s.73.4.73,1.03v18.21c0,4.15-1.76,8.66-6.9,8.66-4,0-6.39-3.3-6.39-8v-18.87c0-.62.33-1.03.96-1.03h1.14c.59,0,.84.4.84,1.03v17.84c0,4.29.99,7.23,4.4,7.23s4.48-3.56,4.48-7.3v-17.77Z"/>
    <path class="cls-10" d="M178.87,245.47c-.26,0-.37-.15-.37-.44l.04-26.06c.07-.62.33-1.03.95-1.03h1.29c.59,0,.7.4.88,1.03l7.08,21.99,7.23-21.99c.22-.62.48-1.03.95-1.03h.55c.59,0,.88.37.88,1.03v25.47c0,.62-.26,1.03-.84,1.03h-1.14c-.62,0-.95-.4-.95-1.03v-18.46l-6.31,18.46c-.18.62-.33,1.03-.92,1.03h-.95c-.62,0-.81-.48-.95-1.03l-6.24-18.46v19.05c0,.29-.11.44-.37.44h-.81Z"/>
    <path class="cls-10" d="M218.77,219.41v25.03c0,.62-.26,1.03-.84,1.03h-1.14c-.62,0-.95-.4-.95-1.03v-25.03h-3.96c-.62,0-1.03-.11-1.03-.73s.4-.73,1.03-.73h10.87c.62,0,1.03.11,1.03.73s-.4.73-1.03.73h-3.96Z"/>
    <path class="cls-10" d="M230.01,235.34v7.56c0,.62.33,1.1.95,1.1h5.14c.62,0,1.03.07,1.03.7s-.4.77-1.03.77h-8.08c-.62,0-.95-.4-.95-1.03v-25.47c0-.62.26-1.03.84-1.03h7.45c.62,0,1.03.15,1.03.77s-.4.7-1.03.7h-4.51c-.59,0-.84.4-.84,1.03v13.43h4.26c.62,0,1.03.11,1.03.73s-.4.73-1.03.73h-4.26Z"/>
    <path class="cls-10" d="M241.97,235.93v-8.19c0-6.02,3.34-9.8,9.29-9.8h1.98c.59,0,.84.4.84,1.03v25.47c0,.62-.26,1.03-.84,1.03h-1.14c-.62,0-.95-.4-.95-1.03v-7.05h-6.24v7.05c0,.62-.26,1.03-.84,1.03h-1.14c-.62,0-.95-.4-.95-1.03v-7.05h-.33c-.62,0-1.03-.11-1.03-.73s.4-.73,1.03-.73h.33ZM244.91,235.93h6.24v-15.49c0-.62-.26-1.03-.84-1.03-3.78,0-5.4,3.12-5.4,9.18v7.34Z"/>
  </g>
</svg>